G04 #@! TF.GenerationSoftware,KiCad,Pcbnew,(6.0.7)*
G04 #@! TF.CreationDate,2022-08-19T22:41:48+07:00*
G04 #@! TF.ProjectId,flashbed,666c6173-6862-4656-942e-6b696361645f,rev?*
G04 #@! TF.SameCoordinates,Original*
G04 #@! TF.FileFunction,Soldermask,Bot*
G04 #@! TF.FilePolarity,Negative*
%FSLAX46Y46*%
G04 Gerber Fmt 4.6, Leading zero omitted, Abs format (unit mm)*
G04 Created by KiCad (PCBNEW (6.0.7)) date 2022-08-19 22:41:48*
%MOMM*%
%LPD*%
G01*
G04 APERTURE LIST*
G04 Aperture macros list*
%AMRoundRect*
0 Rectangle with rounded corners*
0 $1 Rounding radius*
0 $2 $3 $4 $5 $6 $7 $8 $9 X,Y pos of 4 corners*
0 Add a 4 corners polygon primitive as box body*
4,1,4,$2,$3,$4,$5,$6,$7,$8,$9,$2,$3,0*
0 Add four circle primitives for the rounded corners*
1,1,$1+$1,$2,$3*
1,1,$1+$1,$4,$5*
1,1,$1+$1,$6,$7*
1,1,$1+$1,$8,$9*
0 Add four rect primitives between the rounded corners*
20,1,$1+$1,$2,$3,$4,$5,0*
20,1,$1+$1,$4,$5,$6,$7,0*
20,1,$1+$1,$6,$7,$8,$9,0*
20,1,$1+$1,$8,$9,$2,$3,0*%
G04 Aperture macros list end*
%ADD10C,2.000000*%
%ADD11RoundRect,0.250000X-0.600000X0.600000X-0.600000X-0.600000X0.600000X-0.600000X0.600000X0.600000X0*%
%ADD12C,1.700000*%
%ADD13R,1.600000X1.600000*%
%ADD14C,1.600000*%
%ADD15C,0.800000*%
%ADD16C,6.400000*%
G04 APERTURE END LIST*
D10*
X82550000Y-74930000D03*
X82550000Y-77470000D03*
X80010000Y-52070000D03*
X80010000Y-54610000D03*
X80010000Y-57150000D03*
X80010000Y-59690000D03*
D11*
X87630000Y-87376000D03*
D12*
X87630000Y-89916000D03*
X85090000Y-87376000D03*
X85090000Y-89916000D03*
X82550000Y-87376000D03*
X82550000Y-89916000D03*
X80010000Y-87376000D03*
X80010000Y-89916000D03*
X77470000Y-87376000D03*
X77470000Y-89916000D03*
D13*
X80050000Y-41656000D03*
D14*
X82550000Y-41656000D03*
X85050000Y-41656000D03*
X80050000Y-44856000D03*
X82550000Y-44856000D03*
X85050000Y-44856000D03*
D15*
X106252944Y-93298944D03*
X109647056Y-96693056D03*
X109647056Y-93298944D03*
X110350000Y-94996000D03*
D16*
X107950000Y-94996000D03*
D15*
X107950000Y-92596000D03*
X106252944Y-96693056D03*
X107950000Y-97396000D03*
X105550000Y-94996000D03*
X59550000Y-23876000D03*
X57150000Y-26276000D03*
X54750000Y-23876000D03*
D16*
X57150000Y-23876000D03*
D15*
X57150000Y-21476000D03*
X58847056Y-22178944D03*
X58847056Y-25573056D03*
X55452944Y-25573056D03*
X55452944Y-22178944D03*
X57150000Y-92596000D03*
D16*
X57150000Y-94996000D03*
D15*
X55452944Y-96693056D03*
X58847056Y-93298944D03*
X57150000Y-97396000D03*
X55452944Y-93298944D03*
X54750000Y-94996000D03*
X58847056Y-96693056D03*
X59550000Y-94996000D03*
D10*
X90170000Y-34290000D03*
X90170000Y-36830000D03*
X90170000Y-39370000D03*
X90170000Y-41910000D03*
X90170000Y-44450000D03*
X90170000Y-46990000D03*
X90170000Y-49530000D03*
X90170000Y-52070000D03*
X90170000Y-54610000D03*
X90170000Y-57150000D03*
X90170000Y-59690000D03*
X90170000Y-62230000D03*
X90170000Y-64770000D03*
X90170000Y-67310000D03*
X90170000Y-69850000D03*
X90170000Y-72390000D03*
X90170000Y-74930000D03*
X90170000Y-77470000D03*
X90170000Y-80010000D03*
X90170000Y-82550000D03*
X74930000Y-34290000D03*
X74930000Y-36830000D03*
X74930000Y-39370000D03*
X74930000Y-41910000D03*
X74930000Y-44450000D03*
X74930000Y-46990000D03*
X74930000Y-49530000D03*
X74930000Y-52070000D03*
X74930000Y-54610000D03*
X74930000Y-57150000D03*
X74930000Y-59690000D03*
X74930000Y-62230000D03*
X74930000Y-64770000D03*
X74930000Y-67310000D03*
X74930000Y-69850000D03*
X74930000Y-72390000D03*
X74930000Y-74930000D03*
X74930000Y-77470000D03*
X74930000Y-80010000D03*
X74930000Y-82550000D03*
D16*
X107950000Y-23876000D03*
D15*
X105550000Y-23876000D03*
X106252944Y-25573056D03*
X110350000Y-23876000D03*
X109647056Y-22178944D03*
X106252944Y-22178944D03*
X107950000Y-21476000D03*
X109647056Y-25573056D03*
X107950000Y-26276000D03*
M02*
