M48
; DRILL file {KiCad (6.0.7)} date Fri Aug 19 22:41:49 2022
; FORMAT={-:-/ absolute / inch / decimal}
; #@! TF.CreationDate,2022-08-19T22:41:49+07:00
; #@! TF.GenerationSoftware,Kicad,Pcbnew,(6.0.7)
; #@! TF.FileFunction,Plated,1,2,PTH
FMAT,2
INCH
; #@! TA.AperFunction,Plated,PTH,ViaDrill
T1C0.0157
; #@! TA.AperFunction,Plated,PTH,ComponentDrill
T2C0.0197
; #@! TA.AperFunction,Plated,PTH,ComponentDrill
T3C0.0315
; #@! TA.AperFunction,Plated,PTH,ComponentDrill
T4C0.0394
; #@! TA.AperFunction,Plated,PTH,ComponentDrill
T5C0.0591
; #@! TA.AperFunction,Plated,PTH,ComponentDrill
T6C0.1260
%
G90
G05
T1
X3.305Y-3.23
T2
X2.1555Y-0.94
X2.1555Y-3.74
X2.1832Y-0.8732
X2.1832Y-1.0068
X2.1832Y-3.6732
X2.1832Y-3.8068
X2.25Y-0.8455
X2.25Y-1.0345
X2.25Y-3.6455
X2.25Y-3.8345
X2.3168Y-0.8732
X2.3168Y-1.0068
X2.3168Y-3.6732
X2.3168Y-3.8068
X2.3445Y-0.94
X2.3445Y-3.74
X4.1555Y-0.94
X4.1555Y-3.74
X4.1832Y-0.8732
X4.1832Y-1.0068
X4.1832Y-3.6732
X4.1832Y-3.8068
X4.25Y-0.8455
X4.25Y-1.0345
X4.25Y-3.6455
X4.25Y-3.8345
X4.3168Y-0.8732
X4.3168Y-1.0068
X4.3168Y-3.6732
X4.3168Y-3.8068
X4.3445Y-0.94
X4.3445Y-3.74
T3
X3.1516Y-1.64
X3.1516Y-1.766
X3.25Y-1.64
X3.25Y-1.766
X3.3484Y-1.64
X3.3484Y-1.766
T4
X3.05Y-3.44
X3.05Y-3.54
X3.15Y-3.44
X3.15Y-3.54
X3.25Y-3.44
X3.25Y-3.54
X3.35Y-3.44
X3.35Y-3.54
X3.45Y-3.44
X3.45Y-3.54
T5
X2.95Y-1.35
X2.95Y-1.45
X2.95Y-1.55
X2.95Y-1.65
X2.95Y-1.75
X2.95Y-1.85
X2.95Y-1.95
X2.95Y-2.05
X2.95Y-2.15
X2.95Y-2.25
X2.95Y-2.35
X2.95Y-2.45
X2.95Y-2.55
X2.95Y-2.65
X2.95Y-2.75
X2.95Y-2.85
X2.95Y-2.95
X2.95Y-3.05
X2.95Y-3.15
X2.95Y-3.25
X3.15Y-2.05
X3.15Y-2.15
X3.15Y-2.25
X3.15Y-2.35
X3.25Y-2.95
X3.25Y-3.05
X3.55Y-1.35
X3.55Y-1.45
X3.55Y-1.55
X3.55Y-1.65
X3.55Y-1.75
X3.55Y-1.85
X3.55Y-1.95
X3.55Y-2.05
X3.55Y-2.15
X3.55Y-2.25
X3.55Y-2.35
X3.55Y-2.45
X3.55Y-2.55
X3.55Y-2.65
X3.55Y-2.75
X3.55Y-2.85
X3.55Y-2.95
X3.55Y-3.05
X3.55Y-3.15
X3.55Y-3.25
T6
X2.25Y-0.94
X2.25Y-3.74
X4.25Y-0.94
X4.25Y-3.74
T0
M30
