M48
; DRILL file {KiCad (6.0.6)} date Mon Aug  1 11:38:01 2022
; FORMAT={-:-/ absolute / inch / decimal}
; #@! TF.CreationDate,2022-08-01T11:38:01+07:00
; #@! TF.GenerationSoftware,Kicad,Pcbnew,(6.0.6)
; #@! TF.FileFunction,Plated,1,2,PTH
FMAT,2
INCH
; #@! TA.AperFunction,Plated,PTH,ComponentDrill
T1C0.0197
; #@! TA.AperFunction,Plated,PTH,ComponentDrill
T2C0.0394
; #@! TA.AperFunction,Plated,PTH,ComponentDrill
T3C0.0591
; #@! TA.AperFunction,Plated,PTH,ComponentDrill
T4C0.1260
%
G90
G05
T1
X2.1555Y-1.25
X2.1555Y-3.1
X2.1832Y-1.1832
X2.1832Y-1.3168
X2.1832Y-3.0332
X2.1832Y-3.1668
X2.25Y-1.1555
X2.25Y-1.3445
X2.25Y-3.0055
X2.25Y-3.1945
X2.3168Y-1.1832
X2.3168Y-1.3168
X2.3168Y-3.0332
X2.3168Y-3.1668
X2.3445Y-1.25
X2.3445Y-3.1
X4.1555Y-1.25
X4.1555Y-3.1
X4.1832Y-1.1832
X4.1832Y-1.3168
X4.1832Y-3.0332
X4.1832Y-3.1668
X4.25Y-1.1555
X4.25Y-1.3445
X4.25Y-3.0055
X4.25Y-3.1945
X4.3168Y-1.1832
X4.3168Y-1.3168
X4.3168Y-3.0332
X4.3168Y-3.1668
X4.3445Y-1.25
X4.3445Y-3.1
T2
X3.05Y-2.8
X3.05Y-2.9
X3.15Y-2.8
X3.15Y-2.9
X3.25Y-2.8
X3.25Y-2.9
X3.35Y-2.8
X3.35Y-2.9
X3.45Y-2.8
X3.45Y-2.9
T3
X2.95Y-1.35
X2.95Y-1.45
X2.95Y-1.55
X2.95Y-1.65
X2.95Y-1.75
X2.95Y-1.85
X2.95Y-1.95
X2.95Y-2.05
X2.95Y-2.15
X2.95Y-2.25
X2.95Y-2.35
X2.95Y-2.45
X2.95Y-2.55
X3.15Y-2.05
X3.15Y-2.15
X3.15Y-2.25
X3.15Y-2.35
X3.55Y-1.35
X3.55Y-1.45
X3.55Y-1.55
X3.55Y-1.65
X3.55Y-1.75
X3.55Y-1.85
X3.55Y-1.95
X3.55Y-2.05
X3.55Y-2.15
X3.55Y-2.25
X3.55Y-2.35
X3.55Y-2.45
X3.55Y-2.55
T4
X2.25Y-1.25
X2.25Y-3.1
X4.25Y-1.25
X4.25Y-3.1
T0
M30
