M48
; DRILL file {KiCad (6.0.1)} date Wed Mar 23 10:30:31 2022
; FORMAT={-:-/ absolute / metric / decimal}
; #@! TF.CreationDate,2022-03-23T10:30:31+07:00
; #@! TF.GenerationSoftware,Kicad,Pcbnew,(6.0.1)
; #@! TF.FileFunction,NonPlated,1,2,NPTH
FMAT,2
METRIC
; #@! TA.AperFunction,NonPlated,NPTH,ComponentDrill
T1C0.500
%
G90
G05
T1
X74.549Y-66.04
X74.549Y-68.58
X75.374Y-66.04
X75.374Y-68.58
X76.2Y-66.04
X76.2Y-68.58
X77.025Y-66.04
X77.025Y-68.58
X77.851Y-66.04
X77.851Y-68.58
X85.09Y-37.719
X85.09Y-38.544
X85.09Y-39.37
X85.09Y-40.195
X85.09Y-41.021
X85.09Y-58.039
X85.09Y-58.864
X85.09Y-59.69
X85.09Y-60.515
X85.09Y-61.341
X85.09Y-73.279
X85.09Y-74.105
X85.09Y-74.93
X85.09Y-75.755
X85.09Y-76.581
X85.09Y-93.599
X85.09Y-94.424
X85.09Y-95.25
X85.09Y-96.075
X85.09Y-96.901
X87.63Y-37.719
X87.63Y-38.544
X87.63Y-39.37
X87.63Y-40.195
X87.63Y-41.021
X87.63Y-58.039
X87.63Y-58.864
X87.63Y-59.69
X87.63Y-60.515
X87.63Y-61.341
X87.63Y-73.279
X87.63Y-74.105
X87.63Y-74.93
X87.63Y-75.755
X87.63Y-76.581
X87.63Y-93.599
X87.63Y-94.424
X87.63Y-95.25
X87.63Y-96.075
X87.63Y-96.901
X94.869Y-66.04
X94.869Y-68.58
X95.694Y-66.04
X95.694Y-68.58
X96.52Y-66.04
X96.52Y-68.58
X97.346Y-66.04
X97.346Y-68.58
X98.171Y-66.04
X98.171Y-68.58
X105.41Y-37.719
X105.41Y-38.544
X105.41Y-39.37
X105.41Y-40.195
X105.41Y-41.021
X105.41Y-58.039
X105.41Y-58.864
X105.41Y-59.69
X105.41Y-60.515
X105.41Y-61.341
X105.41Y-73.279
X105.41Y-74.105
X105.41Y-74.93
X105.41Y-75.755
X105.41Y-76.581
X105.41Y-93.599
X105.41Y-94.424
X105.41Y-95.25
X105.41Y-96.075
X105.41Y-96.901
X107.95Y-37.719
X107.95Y-38.544
X107.95Y-39.37
X107.95Y-40.195
X107.95Y-41.021
X107.95Y-58.039
X107.95Y-58.864
X107.95Y-59.69
X107.95Y-60.515
X107.95Y-61.341
X107.95Y-73.279
X107.95Y-74.105
X107.95Y-74.93
X107.95Y-75.755
X107.95Y-76.581
X107.95Y-93.599
X107.95Y-94.424
X107.95Y-95.25
X107.95Y-96.075
X107.95Y-96.901
X115.189Y-66.04
X115.189Y-68.58
X116.014Y-66.04
X116.014Y-68.58
X116.84Y-66.04
X116.84Y-68.58
X117.665Y-66.04
X117.665Y-68.58
X118.491Y-66.04
X118.491Y-68.58
X125.73Y-37.719
X125.73Y-38.544
X125.73Y-39.37
X125.73Y-40.195
X125.73Y-41.021
X125.73Y-58.039
X125.73Y-58.864
X125.73Y-59.69
X125.73Y-60.515
X125.73Y-61.341
X125.73Y-73.279
X125.73Y-74.105
X125.73Y-74.93
X125.73Y-75.755
X125.73Y-76.581
X125.73Y-93.599
X125.73Y-94.424
X125.73Y-95.25
X125.73Y-96.075
X125.73Y-96.901
X128.27Y-37.719
X128.27Y-38.544
X128.27Y-39.37
X128.27Y-40.195
X128.27Y-41.021
X128.27Y-58.039
X128.27Y-58.864
X128.27Y-59.69
X128.27Y-60.515
X128.27Y-61.341
X128.27Y-73.279
X128.27Y-74.105
X128.27Y-74.93
X128.27Y-75.755
X128.27Y-76.581
X128.27Y-93.599
X128.27Y-94.424
X128.27Y-95.25
X128.27Y-96.075
X128.27Y-96.901
X135.509Y-66.04
X135.509Y-68.58
X136.334Y-66.04
X136.334Y-68.58
X137.16Y-66.04
X137.16Y-68.58
X137.986Y-66.04
X137.986Y-68.58
X138.811Y-66.04
X138.811Y-68.58
X146.05Y-37.719
X146.05Y-38.544
X146.05Y-39.37
X146.05Y-40.195
X146.05Y-41.021
X146.05Y-58.039
X146.05Y-58.864
X146.05Y-59.69
X146.05Y-60.515
X146.05Y-61.341
X146.05Y-73.279
X146.05Y-74.105
X146.05Y-74.93
X146.05Y-75.755
X146.05Y-76.581
X146.05Y-93.599
X146.05Y-94.424
X146.05Y-95.25
X146.05Y-96.075
X146.05Y-96.901
X148.59Y-37.719
X148.59Y-38.544
X148.59Y-39.37
X148.59Y-40.195
X148.59Y-41.021
X148.59Y-58.039
X148.59Y-58.864
X148.59Y-59.69
X148.59Y-60.515
X148.59Y-61.341
X148.59Y-73.279
X148.59Y-74.105
X148.59Y-74.93
X148.59Y-75.755
X148.59Y-76.581
X148.59Y-93.599
X148.59Y-94.424
X148.59Y-95.25
X148.59Y-96.075
X148.59Y-96.901
X155.829Y-66.04
X155.829Y-68.58
X156.654Y-66.04
X156.654Y-68.58
X157.48Y-66.04
X157.48Y-68.58
X158.305Y-66.04
X158.305Y-68.58
X159.131Y-66.04
X159.131Y-68.58
T0
M30
