M48
; DRILL file {KiCad (6.0.1)} date Tue Mar 22 11:17:59 2022
; FORMAT={-:-/ absolute / metric / decimal}
; #@! TF.CreationDate,2022-03-22T11:17:59+07:00
; #@! TF.GenerationSoftware,Kicad,Pcbnew,(6.0.1)
; #@! TF.FileFunction,Plated,1,2,PTH
FMAT,2
METRIC
; #@! TA.AperFunction,Plated,PTH,ComponentDrill
T1C0.200
; #@! TA.AperFunction,Plated,PTH,ViaDrill
T2C0.250
; #@! TA.AperFunction,Plated,PTH,ViaDrill
T3C0.300
; #@! TA.AperFunction,Plated,PTH,ComponentDrill
T4C0.600
; #@! TA.AperFunction,Plated,PTH,ComponentDrill
T5C0.900
%
G90
G05
T1
X73.897Y-42.249
X73.897Y-43.349
X74.997Y-42.249
X74.997Y-43.349
X77.381Y-90.731
X77.381Y-91.831
X78.481Y-90.731
X78.481Y-91.831
X93.677Y-42.249
X93.677Y-43.349
X94.777Y-42.249
X94.777Y-43.349
X97.161Y-90.731
X97.161Y-91.831
X98.261Y-90.731
X98.261Y-91.831
X113.457Y-42.249
X113.457Y-43.349
X114.557Y-42.249
X114.557Y-43.349
X116.941Y-90.731
X116.941Y-91.831
X118.041Y-90.731
X118.041Y-91.831
X133.237Y-42.249
X133.237Y-43.349
X134.337Y-42.249
X134.337Y-43.349
X136.721Y-90.731
X136.721Y-91.831
X137.821Y-90.731
X137.821Y-91.831
X153.017Y-42.249
X153.017Y-43.349
X154.117Y-42.249
X154.117Y-43.349
X156.501Y-90.731
X156.501Y-91.831
X157.601Y-90.731
X157.601Y-91.831
T2
X69.813Y-83.468
X69.93Y-77.514
X71.347Y-51.361
X71.348Y-52.766
X71.349Y-52.067
X71.374Y-56.439
X71.408Y-58.494
X71.411Y-57.179
X71.476Y-49.2
X71.73Y-50.075
X71.73Y-50.775
X71.78Y-44.461
X71.785Y-89.935
X72.253Y-85.058
X72.28Y-42.799
X72.28Y-48.971
X72.945Y-84.95
X73.101Y-50.851
X73.486Y-91.586
X73.558Y-58.318
X73.676Y-89.316
X73.842Y-92.957
X74.808Y-40.468
X74.833Y-86.76
X74.908Y-49.095
X75.274Y-93.796
X75.363Y-89.531
X75.518Y-84.753
X75.616Y-49.047
X75.768Y-50.724
X75.933Y-40.136
X75.979Y-78.48
X76.175Y-49.784
X76.177Y-93.298
X76.202Y-40.782
X76.204Y-84.296
X76.4Y-55.6
X76.446Y-93.944
X76.611Y-83.356
X76.763Y-85.033
X76.86Y-49.327
X77.015Y-44.549
X77.105Y-40.284
X77.47Y-84.985
X77.546Y-47.32
X77.571Y-93.612
X78.537Y-41.123
X78.703Y-44.764
X78.82Y-75.762
X78.892Y-42.494
X79.278Y-83.229
X79.434Y-49.13
X80.099Y-85.109
X80.099Y-91.281
X80.125Y-49.022
X80.594Y-44.145
X80.599Y-89.619
X80.649Y-83.305
X80.649Y-84.005
X80.903Y-84.88
X80.968Y-76.901
X80.971Y-75.586
X81.005Y-77.641
X81.029Y-82.013
X81.03Y-81.314
X81.031Y-82.719
X82.448Y-56.566
X82.566Y-50.612
X89.593Y-83.468
X89.71Y-77.514
X91.127Y-51.361
X91.128Y-52.766
X91.129Y-52.067
X91.154Y-56.439
X91.188Y-58.494
X91.191Y-57.179
X91.256Y-49.2
X91.51Y-50.075
X91.51Y-50.775
X91.56Y-44.461
X91.565Y-89.935
X92.033Y-85.058
X92.06Y-42.799
X92.06Y-48.971
X92.725Y-84.95
X92.881Y-50.851
X93.266Y-91.586
X93.338Y-58.318
X93.456Y-89.316
X93.622Y-92.957
X94.588Y-40.468
X94.613Y-86.76
X94.688Y-49.095
X95.054Y-93.796
X95.143Y-89.531
X95.298Y-84.753
X95.396Y-49.047
X95.548Y-50.724
X95.713Y-40.136
X95.759Y-78.48
X95.955Y-49.784
X95.957Y-93.298
X95.982Y-40.782
X95.984Y-84.296
X96.18Y-55.6
X96.226Y-93.944
X96.391Y-83.356
X96.543Y-85.033
X96.64Y-49.327
X96.795Y-44.549
X96.885Y-40.284
X97.25Y-84.985
X97.326Y-47.32
X97.351Y-93.612
X98.317Y-41.123
X98.483Y-44.764
X98.6Y-75.762
X98.672Y-42.494
X99.058Y-83.229
X99.214Y-49.13
X99.879Y-85.109
X99.879Y-91.281
X99.905Y-49.022
X100.374Y-44.145
X100.379Y-89.619
X100.429Y-83.305
X100.429Y-84.005
X100.683Y-84.88
X100.748Y-76.901
X100.751Y-75.586
X100.785Y-77.641
X100.809Y-82.013
X100.81Y-81.314
X100.811Y-82.719
X102.228Y-56.566
X102.346Y-50.612
X109.373Y-83.468
X109.49Y-77.514
X110.907Y-51.361
X110.908Y-52.766
X110.909Y-52.067
X110.934Y-56.439
X110.968Y-58.494
X110.971Y-57.179
X111.036Y-49.2
X111.29Y-50.075
X111.29Y-50.775
X111.34Y-44.461
X111.345Y-89.935
X111.813Y-85.058
X111.84Y-42.799
X111.84Y-48.971
X112.505Y-84.95
X112.661Y-50.851
X113.046Y-91.586
X113.118Y-58.318
X113.236Y-89.316
X113.402Y-92.957
X114.368Y-40.468
X114.393Y-86.76
X114.468Y-49.095
X114.834Y-93.796
X114.923Y-89.531
X115.078Y-84.753
X115.176Y-49.047
X115.328Y-50.724
X115.493Y-40.136
X115.539Y-78.48
X115.735Y-49.784
X115.737Y-93.298
X115.762Y-40.782
X115.764Y-84.296
X115.96Y-55.6
X116.006Y-93.944
X116.171Y-83.356
X116.323Y-85.033
X116.42Y-49.327
X116.575Y-44.549
X116.665Y-40.284
X117.03Y-84.985
X117.106Y-47.32
X117.131Y-93.612
X118.097Y-41.123
X118.263Y-44.764
X118.38Y-75.762
X118.452Y-42.494
X118.838Y-83.229
X118.994Y-49.13
X119.659Y-85.109
X119.659Y-91.281
X119.685Y-49.022
X120.154Y-44.145
X120.159Y-89.619
X120.209Y-83.305
X120.209Y-84.005
X120.463Y-84.88
X120.528Y-76.901
X120.531Y-75.586
X120.565Y-77.641
X120.589Y-82.013
X120.59Y-81.314
X120.591Y-82.719
X122.008Y-56.566
X122.126Y-50.612
X129.153Y-83.468
X129.27Y-77.514
X130.687Y-51.361
X130.688Y-52.766
X130.689Y-52.067
X130.714Y-56.439
X130.748Y-58.494
X130.751Y-57.179
X130.816Y-49.2
X131.07Y-50.075
X131.07Y-50.775
X131.12Y-44.461
X131.125Y-89.935
X131.593Y-85.058
X131.62Y-42.799
X131.62Y-48.971
X132.285Y-84.95
X132.441Y-50.851
X132.826Y-91.586
X132.898Y-58.318
X133.016Y-89.316
X133.182Y-92.957
X134.148Y-40.468
X134.173Y-86.76
X134.248Y-49.095
X134.614Y-93.796
X134.703Y-89.531
X134.858Y-84.753
X134.956Y-49.047
X135.108Y-50.724
X135.273Y-40.136
X135.319Y-78.48
X135.515Y-49.784
X135.517Y-93.298
X135.542Y-40.782
X135.544Y-84.296
X135.74Y-55.6
X135.786Y-93.944
X135.951Y-83.356
X136.103Y-85.033
X136.2Y-49.327
X136.355Y-44.549
X136.445Y-40.284
X136.81Y-84.985
X136.886Y-47.32
X136.911Y-93.612
X137.877Y-41.123
X138.043Y-44.764
X138.16Y-75.762
X138.232Y-42.494
X138.618Y-83.229
X138.774Y-49.13
X139.439Y-85.109
X139.439Y-91.281
X139.465Y-49.022
X139.934Y-44.145
X139.939Y-89.619
X139.989Y-83.305
X139.989Y-84.005
X140.243Y-84.88
X140.308Y-76.901
X140.311Y-75.586
X140.345Y-77.641
X140.369Y-82.013
X140.37Y-81.314
X140.371Y-82.719
X141.788Y-56.566
X141.906Y-50.612
X148.933Y-83.468
X149.05Y-77.514
X150.467Y-51.361
X150.468Y-52.766
X150.469Y-52.067
X150.494Y-56.439
X150.528Y-58.494
X150.531Y-57.179
X150.596Y-49.2
X150.85Y-50.075
X150.85Y-50.775
X150.9Y-44.461
X150.905Y-89.935
X151.373Y-85.058
X151.4Y-42.799
X151.4Y-48.971
X152.065Y-84.95
X152.221Y-50.851
X152.606Y-91.586
X152.678Y-58.318
X152.796Y-89.316
X152.962Y-92.957
X153.928Y-40.468
X153.953Y-86.76
X154.028Y-49.095
X154.394Y-93.796
X154.483Y-89.531
X154.638Y-84.753
X154.736Y-49.047
X154.888Y-50.724
X155.053Y-40.136
X155.099Y-78.48
X155.295Y-49.784
X155.297Y-93.298
X155.322Y-40.782
X155.324Y-84.296
X155.52Y-55.6
X155.566Y-93.944
X155.731Y-83.356
X155.883Y-85.033
X155.98Y-49.327
X156.135Y-44.549
X156.225Y-40.284
X156.59Y-84.985
X156.666Y-47.32
X156.691Y-93.612
X157.657Y-41.123
X157.823Y-44.764
X157.94Y-75.762
X158.012Y-42.494
X158.398Y-83.229
X158.554Y-49.13
X159.219Y-85.109
X159.219Y-91.281
X159.245Y-49.022
X159.714Y-44.145
X159.719Y-89.619
X159.769Y-83.305
X159.769Y-84.005
X160.023Y-84.88
X160.088Y-76.901
X160.091Y-75.586
X160.125Y-77.641
X160.149Y-82.013
X160.15Y-81.314
X160.151Y-82.719
X161.568Y-56.566
X161.686Y-50.612
T3
X73.729Y-39.885
X73.791Y-94.253
X78.588Y-39.827
X78.65Y-94.195
X93.509Y-39.885
X93.571Y-94.253
X98.368Y-39.827
X98.43Y-94.195
X113.289Y-39.885
X113.351Y-94.253
X118.148Y-39.827
X118.21Y-94.195
X133.069Y-39.885
X133.131Y-94.253
X137.928Y-39.827
X137.99Y-94.195
X152.849Y-39.885
X152.911Y-94.253
X157.708Y-39.827
X157.77Y-94.195
T5
X68.559Y-69.31
X68.559Y-71.85
X68.559Y-74.39
X68.559Y-76.93
X68.559Y-79.47
X68.559Y-82.01
X68.559Y-84.55
X68.559Y-87.09
X68.559Y-89.63
X68.559Y-92.17
X68.559Y-94.71
X68.559Y-97.25
X68.559Y-99.79
X68.58Y-34.29
X68.58Y-36.83
X68.58Y-39.37
X68.58Y-41.91
X68.58Y-44.45
X68.58Y-46.99
X68.58Y-49.53
X68.58Y-52.07
X68.58Y-54.61
X68.58Y-57.15
X68.58Y-59.69
X68.58Y-62.23
X68.58Y-64.77
X83.799Y-69.31
X83.799Y-71.85
X83.799Y-74.39
X83.799Y-76.93
X83.799Y-79.47
X83.799Y-82.01
X83.799Y-84.55
X83.799Y-87.09
X83.799Y-89.63
X83.799Y-92.17
X83.799Y-94.71
X83.799Y-97.25
X83.799Y-99.79
X83.82Y-34.29
X83.82Y-36.83
X83.82Y-39.37
X83.82Y-41.91
X83.82Y-44.45
X83.82Y-46.99
X83.82Y-49.53
X83.82Y-52.07
X83.82Y-54.61
X83.82Y-57.15
X83.82Y-59.69
X83.82Y-62.23
X83.82Y-64.77
X88.339Y-69.31
X88.339Y-71.85
X88.339Y-74.39
X88.339Y-76.93
X88.339Y-79.47
X88.339Y-82.01
X88.339Y-84.55
X88.339Y-87.09
X88.339Y-89.63
X88.339Y-92.17
X88.339Y-94.71
X88.339Y-97.25
X88.339Y-99.79
X88.36Y-34.29
X88.36Y-36.83
X88.36Y-39.37
X88.36Y-41.91
X88.36Y-44.45
X88.36Y-46.99
X88.36Y-49.53
X88.36Y-52.07
X88.36Y-54.61
X88.36Y-57.15
X88.36Y-59.69
X88.36Y-62.23
X88.36Y-64.77
X103.579Y-69.31
X103.579Y-71.85
X103.579Y-74.39
X103.579Y-76.93
X103.579Y-79.47
X103.579Y-82.01
X103.579Y-84.55
X103.579Y-87.09
X103.579Y-89.63
X103.579Y-92.17
X103.579Y-94.71
X103.579Y-97.25
X103.579Y-99.79
X103.6Y-34.29
X103.6Y-36.83
X103.6Y-39.37
X103.6Y-41.91
X103.6Y-44.45
X103.6Y-46.99
X103.6Y-49.53
X103.6Y-52.07
X103.6Y-54.61
X103.6Y-57.15
X103.6Y-59.69
X103.6Y-62.23
X103.6Y-64.77
X108.119Y-69.31
X108.119Y-71.85
X108.119Y-74.39
X108.119Y-76.93
X108.119Y-79.47
X108.119Y-82.01
X108.119Y-84.55
X108.119Y-87.09
X108.119Y-89.63
X108.119Y-92.17
X108.119Y-94.71
X108.119Y-97.25
X108.119Y-99.79
X108.14Y-34.29
X108.14Y-36.83
X108.14Y-39.37
X108.14Y-41.91
X108.14Y-44.45
X108.14Y-46.99
X108.14Y-49.53
X108.14Y-52.07
X108.14Y-54.61
X108.14Y-57.15
X108.14Y-59.69
X108.14Y-62.23
X108.14Y-64.77
X123.359Y-69.31
X123.359Y-71.85
X123.359Y-74.39
X123.359Y-76.93
X123.359Y-79.47
X123.359Y-82.01
X123.359Y-84.55
X123.359Y-87.09
X123.359Y-89.63
X123.359Y-92.17
X123.359Y-94.71
X123.359Y-97.25
X123.359Y-99.79
X123.38Y-34.29
X123.38Y-36.83
X123.38Y-39.37
X123.38Y-41.91
X123.38Y-44.45
X123.38Y-46.99
X123.38Y-49.53
X123.38Y-52.07
X123.38Y-54.61
X123.38Y-57.15
X123.38Y-59.69
X123.38Y-62.23
X123.38Y-64.77
X127.899Y-69.31
X127.899Y-71.85
X127.899Y-74.39
X127.899Y-76.93
X127.899Y-79.47
X127.899Y-82.01
X127.899Y-84.55
X127.899Y-87.09
X127.899Y-89.63
X127.899Y-92.17
X127.899Y-94.71
X127.899Y-97.25
X127.899Y-99.79
X127.92Y-34.29
X127.92Y-36.83
X127.92Y-39.37
X127.92Y-41.91
X127.92Y-44.45
X127.92Y-46.99
X127.92Y-49.53
X127.92Y-52.07
X127.92Y-54.61
X127.92Y-57.15
X127.92Y-59.69
X127.92Y-62.23
X127.92Y-64.77
X143.139Y-69.31
X143.139Y-71.85
X143.139Y-74.39
X143.139Y-76.93
X143.139Y-79.47
X143.139Y-82.01
X143.139Y-84.55
X143.139Y-87.09
X143.139Y-89.63
X143.139Y-92.17
X143.139Y-94.71
X143.139Y-97.25
X143.139Y-99.79
X143.16Y-34.29
X143.16Y-36.83
X143.16Y-39.37
X143.16Y-41.91
X143.16Y-44.45
X143.16Y-46.99
X143.16Y-49.53
X143.16Y-52.07
X143.16Y-54.61
X143.16Y-57.15
X143.16Y-59.69
X143.16Y-62.23
X143.16Y-64.77
X147.679Y-69.31
X147.679Y-71.85
X147.679Y-74.39
X147.679Y-76.93
X147.679Y-79.47
X147.679Y-82.01
X147.679Y-84.55
X147.679Y-87.09
X147.679Y-89.63
X147.679Y-92.17
X147.679Y-94.71
X147.679Y-97.25
X147.679Y-99.79
X147.7Y-34.29
X147.7Y-36.83
X147.7Y-39.37
X147.7Y-41.91
X147.7Y-44.45
X147.7Y-46.99
X147.7Y-49.53
X147.7Y-52.07
X147.7Y-54.61
X147.7Y-57.15
X147.7Y-59.69
X147.7Y-62.23
X147.7Y-64.77
X162.919Y-69.31
X162.919Y-71.85
X162.919Y-74.39
X162.919Y-76.93
X162.919Y-79.47
X162.919Y-82.01
X162.919Y-84.55
X162.919Y-87.09
X162.919Y-89.63
X162.919Y-92.17
X162.919Y-94.71
X162.919Y-97.25
X162.919Y-99.79
X162.94Y-34.29
X162.94Y-36.83
X162.94Y-39.37
X162.94Y-41.91
X162.94Y-44.45
X162.94Y-46.99
X162.94Y-49.53
X162.94Y-52.07
X162.94Y-54.61
X162.94Y-57.15
X162.94Y-59.69
X162.94Y-62.23
X162.94Y-64.77
T4
G00X70.614Y-34.03
M15
G01X70.614Y-35.23
M16
G05
G00X70.614Y-38.23
M15
G01X70.614Y-39.03
M16
G05
G00X70.614Y-95.849
M15
G01X70.614Y-95.049
M16
G05
G00X70.614Y-100.049
M15
G01X70.614Y-98.849
M16
G05
G00X81.764Y-34.03
M15
G01X81.764Y-35.23
M16
G05
G00X81.764Y-38.23
M15
G01X81.764Y-39.03
M16
G05
G00X81.764Y-95.849
M15
G01X81.764Y-95.049
M16
G05
G00X81.764Y-100.049
M15
G01X81.764Y-98.849
M16
G05
G00X90.394Y-34.03
M15
G01X90.394Y-35.23
M16
G05
G00X90.394Y-38.23
M15
G01X90.394Y-39.03
M16
G05
G00X90.394Y-95.849
M15
G01X90.394Y-95.049
M16
G05
G00X90.394Y-100.049
M15
G01X90.394Y-98.849
M16
G05
G00X101.544Y-34.03
M15
G01X101.544Y-35.23
M16
G05
G00X101.544Y-38.23
M15
G01X101.544Y-39.03
M16
G05
G00X101.544Y-95.849
M15
G01X101.544Y-95.049
M16
G05
G00X101.544Y-100.049
M15
G01X101.544Y-98.849
M16
G05
G00X110.174Y-34.03
M15
G01X110.174Y-35.23
M16
G05
G00X110.174Y-38.23
M15
G01X110.174Y-39.03
M16
G05
G00X110.174Y-95.849
M15
G01X110.174Y-95.049
M16
G05
G00X110.174Y-100.049
M15
G01X110.174Y-98.849
M16
G05
G00X121.324Y-34.03
M15
G01X121.324Y-35.23
M16
G05
G00X121.324Y-38.23
M15
G01X121.324Y-39.03
M16
G05
G00X121.324Y-95.849
M15
G01X121.324Y-95.049
M16
G05
G00X121.324Y-100.049
M15
G01X121.324Y-98.849
M16
G05
G00X129.954Y-34.03
M15
G01X129.954Y-35.23
M16
G05
G00X129.954Y-38.23
M15
G01X129.954Y-39.03
M16
G05
G00X129.954Y-95.849
M15
G01X129.954Y-95.049
M16
G05
G00X129.954Y-100.049
M15
G01X129.954Y-98.849
M16
G05
G00X141.104Y-34.03
M15
G01X141.104Y-35.23
M16
G05
G00X141.104Y-38.23
M15
G01X141.104Y-39.03
M16
G05
G00X141.104Y-95.849
M15
G01X141.104Y-95.049
M16
G05
G00X141.104Y-100.049
M15
G01X141.104Y-98.849
M16
G05
G00X149.734Y-34.03
M15
G01X149.734Y-35.23
M16
G05
G00X149.734Y-38.23
M15
G01X149.734Y-39.03
M16
G05
G00X149.734Y-95.849
M15
G01X149.734Y-95.049
M16
G05
G00X149.734Y-100.049
M15
G01X149.734Y-98.849
M16
G05
G00X160.884Y-34.03
M15
G01X160.884Y-35.23
M16
G05
G00X160.884Y-38.23
M15
G01X160.884Y-39.03
M16
G05
G00X160.884Y-95.849
M15
G01X160.884Y-95.049
M16
G05
G00X160.884Y-100.049
M15
G01X160.884Y-98.849
M16
G05
T0
M30
