G04 #@! TF.GenerationSoftware,KiCad,Pcbnew,(6.0.1)*
G04 #@! TF.CreationDate,2022-03-23T10:30:31+07:00*
G04 #@! TF.ProjectId,Kimiro,4b696d69-726f-42e6-9b69-6361645f7063,rev?*
G04 #@! TF.SameCoordinates,Original*
G04 #@! TF.FileFunction,Profile,NP*
%FSLAX46Y46*%
G04 Gerber Fmt 4.6, Leading zero omitted, Abs format (unit mm)*
G04 Created by KiCad (PCBNEW (6.0.1)) date 2022-03-23 10:30:31*
%MOMM*%
%LPD*%
G01*
G04 APERTURE LIST*
G04 #@! TA.AperFunction,Profile*
%ADD10C,0.100000*%
G04 #@! TD*
G04 #@! TA.AperFunction,Profile*
%ADD11C,0.120000*%
G04 #@! TD*
G04 APERTURE END LIST*
D10*
X70993000Y-101600000D02*
G75*
G03*
X71628000Y-100965000I1J634999D01*
G01*
X84455000Y-68580000D02*
X78978000Y-68580000D01*
X142367000Y-101600000D02*
X145415000Y-101600000D01*
X146050000Y-56912000D02*
X146050000Y-42148000D01*
X166370000Y-36592000D02*
X166370000Y-33655000D01*
X71628000Y-33655000D02*
G75*
G03*
X70993000Y-33020000I-634999J1D01*
G01*
X125730000Y-62468000D02*
X125730000Y-65405000D01*
X107950000Y-72152000D02*
X107950000Y-69215000D01*
X145415000Y-101600000D02*
G75*
G03*
X146050000Y-100965000I1J634999D01*
G01*
X125730000Y-56912000D02*
X125730000Y-42148000D01*
X107950000Y-98028000D02*
X107950000Y-100965000D01*
X146050000Y-72152000D02*
X146050000Y-69215000D01*
X85090000Y-77708000D02*
X85090000Y-92472000D01*
X105410000Y-100965000D02*
X105410000Y-98028000D01*
X152908000Y-33655000D02*
X152908000Y-37896800D01*
X161417000Y-38531800D02*
G75*
G03*
X162052000Y-37896800I1J634999D01*
G01*
X112268000Y-37896800D02*
G75*
G03*
X112903000Y-38531800I634999J-1D01*
G01*
X125730000Y-100965000D02*
X125730000Y-98028000D01*
X162687000Y-33020000D02*
G75*
G03*
X162052000Y-33655000I-1J-634999D01*
G01*
X125730000Y-69215000D02*
G75*
G03*
X125095000Y-68580000I-634999J1D01*
G01*
X80772000Y-96723200D02*
G75*
G03*
X80137000Y-96088200I-634999J1D01*
G01*
X125095000Y-66040000D02*
G75*
G03*
X125730000Y-65405000I1J634999D01*
G01*
X166370000Y-72152000D02*
X166370000Y-69215000D01*
X148590000Y-62468000D02*
X148590000Y-65405000D01*
X121412000Y-96723200D02*
G75*
G03*
X120777000Y-96088200I-634999J1D01*
G01*
X128270000Y-56912000D02*
X128270000Y-42148000D01*
X85090000Y-100965000D02*
X85090000Y-98028000D01*
X122047000Y-33020000D02*
G75*
G03*
X121412000Y-33655000I-1J-634999D01*
G01*
X105410000Y-56912000D02*
X105410000Y-42148000D01*
X125730000Y-77708000D02*
X125730000Y-92472000D01*
X128270000Y-72152000D02*
X128270000Y-69215000D01*
X108585000Y-68580000D02*
X114062000Y-68580000D01*
X122047000Y-33020000D02*
X125095000Y-33020000D01*
X67310000Y-65405000D02*
X67310000Y-33655000D01*
X80772000Y-100965000D02*
G75*
G03*
X81407000Y-101600000I634999J-1D01*
G01*
X152273000Y-101600000D02*
X149225000Y-101600000D01*
X121412000Y-33655000D02*
X121412000Y-37896800D01*
X148590000Y-56912000D02*
X148590000Y-42148000D01*
X112268000Y-33655000D02*
G75*
G03*
X111633000Y-33020000I-634999J1D01*
G01*
X107950000Y-100965000D02*
G75*
G03*
X108585000Y-101600000I634999J-1D01*
G01*
X112903000Y-38531800D02*
X120777000Y-38531800D01*
X84455000Y-66040000D02*
G75*
G03*
X85090000Y-65405000I1J634999D01*
G01*
X128905000Y-68580000D02*
G75*
G03*
X128270000Y-69215000I-1J-634999D01*
G01*
X84455000Y-101600000D02*
G75*
G03*
X85090000Y-100965000I1J634999D01*
G01*
X125095000Y-68580000D02*
X119618000Y-68580000D01*
X111633000Y-101600000D02*
X108585000Y-101600000D01*
X81407000Y-33020000D02*
X84455000Y-33020000D01*
X131953000Y-101600000D02*
X128905000Y-101600000D01*
X148590000Y-77708000D02*
X148590000Y-92472000D01*
X125095000Y-101600000D02*
G75*
G03*
X125730000Y-100965000I1J634999D01*
G01*
X85090000Y-56912000D02*
X85090000Y-42148000D01*
X128905000Y-33020000D02*
G75*
G03*
X128270000Y-33655000I-1J-634999D01*
G01*
X91313000Y-101600000D02*
X88265000Y-101600000D01*
X128905000Y-68580000D02*
X134382000Y-68580000D01*
X81407000Y-33020000D02*
G75*
G03*
X80772000Y-33655000I-1J-634999D01*
G01*
X141732000Y-33655000D02*
X141732000Y-37896800D01*
X162052000Y-96723200D02*
G75*
G03*
X161417000Y-96088200I-634999J1D01*
G01*
X153543000Y-38531800D02*
X161417000Y-38531800D01*
X67945000Y-68580000D02*
G75*
G03*
X67310000Y-69215000I-1J-634999D01*
G01*
X87630000Y-98028000D02*
X87630000Y-100965000D01*
X88265000Y-68580000D02*
G75*
G03*
X87630000Y-69215000I-1J-634999D01*
G01*
X162687000Y-101600000D02*
X165735000Y-101600000D01*
X152908000Y-37896800D02*
G75*
G03*
X153543000Y-38531800I634999J-1D01*
G01*
X141097000Y-96088200D02*
X133223000Y-96088200D01*
X165735000Y-101600000D02*
G75*
G03*
X166370000Y-100965000I1J634999D01*
G01*
X67310000Y-100965000D02*
G75*
G03*
X67945000Y-101600000I634999J-1D01*
G01*
X162052000Y-100965000D02*
X162052000Y-96723200D01*
X165735000Y-66040000D02*
X160258000Y-66040000D01*
X104775000Y-66040000D02*
G75*
G03*
X105410000Y-65405000I1J634999D01*
G01*
X145415000Y-66040000D02*
G75*
G03*
X146050000Y-65405000I1J634999D01*
G01*
X132588000Y-33655000D02*
G75*
G03*
X131953000Y-33020000I-634999J1D01*
G01*
X101727000Y-101600000D02*
X104775000Y-101600000D01*
X70993000Y-101600000D02*
X67945000Y-101600000D01*
X91948000Y-100965000D02*
X91948000Y-96723200D01*
X80772000Y-100965000D02*
X80772000Y-96723200D01*
X87630000Y-72152000D02*
X87630000Y-69215000D01*
X87630000Y-36592000D02*
X87630000Y-33655000D01*
X105410000Y-62468000D02*
X105410000Y-65405000D01*
X85090000Y-69215000D02*
G75*
G03*
X84455000Y-68580000I-634999J1D01*
G01*
X128905000Y-66040000D02*
X134382000Y-66040000D01*
X149225000Y-68580000D02*
G75*
G03*
X148590000Y-69215000I-1J-634999D01*
G01*
X128270000Y-98028000D02*
X128270000Y-100965000D01*
X122047000Y-101600000D02*
X125095000Y-101600000D01*
X162687000Y-33020000D02*
X165735000Y-33020000D01*
X165735000Y-68580000D02*
X160258000Y-68580000D01*
X67310000Y-98028000D02*
X67310000Y-100965000D01*
X132588000Y-33655000D02*
X132588000Y-37896800D01*
X166370000Y-62468000D02*
X166370000Y-36592000D01*
X121412000Y-100965000D02*
X121412000Y-96723200D01*
X105410000Y-72152000D02*
X105410000Y-69215000D01*
X120777000Y-96088200D02*
X112903000Y-96088200D01*
X145415000Y-66040000D02*
X139938000Y-66040000D01*
X101092000Y-100965000D02*
G75*
G03*
X101727000Y-101600000I634999J-1D01*
G01*
X67310000Y-72152000D02*
X67310000Y-98028000D01*
X148590000Y-98028000D02*
X148590000Y-100965000D01*
X112903000Y-96088200D02*
G75*
G03*
X112268000Y-96723200I-1J-634999D01*
G01*
X108585000Y-68580000D02*
G75*
G03*
X107950000Y-69215000I-1J-634999D01*
G01*
X146050000Y-100965000D02*
X146050000Y-98028000D01*
X80772000Y-33655000D02*
X80772000Y-37896800D01*
X80137000Y-38531800D02*
G75*
G03*
X80772000Y-37896800I1J634999D01*
G01*
X101092000Y-33655000D02*
X101092000Y-37896800D01*
X85090000Y-72152000D02*
X85090000Y-69215000D01*
X80137000Y-96088200D02*
X72263000Y-96088200D01*
X101727000Y-33020000D02*
G75*
G03*
X101092000Y-33655000I-1J-634999D01*
G01*
X128270000Y-65405000D02*
G75*
G03*
X128905000Y-66040000I634999J-1D01*
G01*
X152908000Y-33655000D02*
G75*
G03*
X152273000Y-33020000I-634999J1D01*
G01*
X152273000Y-101600000D02*
G75*
G03*
X152908000Y-100965000I1J634999D01*
G01*
X166370000Y-100965000D02*
X166370000Y-98028000D01*
X111633000Y-101600000D02*
G75*
G03*
X112268000Y-100965000I1J634999D01*
G01*
X111633000Y-33020000D02*
X108585000Y-33020000D01*
X131953000Y-33020000D02*
X128905000Y-33020000D01*
X107950000Y-62468000D02*
X107950000Y-65405000D01*
X128270000Y-77708000D02*
X128270000Y-92472000D01*
X125095000Y-66040000D02*
X119618000Y-66040000D01*
X91948000Y-37896800D02*
G75*
G03*
X92583000Y-38531800I634999J-1D01*
G01*
X108585000Y-66040000D02*
X114062000Y-66040000D01*
X148590000Y-65405000D02*
G75*
G03*
X149225000Y-66040000I634999J-1D01*
G01*
X142367000Y-33020000D02*
X145415000Y-33020000D01*
X85090000Y-62468000D02*
X85090000Y-65405000D01*
X91948000Y-33655000D02*
X91948000Y-37896800D01*
X81407000Y-101600000D02*
X84455000Y-101600000D01*
X125730000Y-33655000D02*
G75*
G03*
X125095000Y-33020000I-634999J1D01*
G01*
X166370000Y-62468000D02*
X166370000Y-65405000D01*
X87630000Y-56912000D02*
X87630000Y-42148000D01*
X104775000Y-68580000D02*
X99298000Y-68580000D01*
X105410000Y-36592000D02*
X105410000Y-33655000D01*
X101092000Y-96723200D02*
G75*
G03*
X100457000Y-96088200I-634999J1D01*
G01*
X87630000Y-100965000D02*
G75*
G03*
X88265000Y-101600000I634999J-1D01*
G01*
X162052000Y-100965000D02*
G75*
G03*
X162687000Y-101600000I634999J-1D01*
G01*
X92583000Y-38531800D02*
X100457000Y-38531800D01*
X72263000Y-96088200D02*
G75*
G03*
X71628000Y-96723200I-1J-634999D01*
G01*
X148590000Y-36592000D02*
X148590000Y-33655000D01*
X67945000Y-66040000D02*
X73422000Y-66040000D01*
X149225000Y-68580000D02*
X154702000Y-68580000D01*
X149225000Y-66040000D02*
X154702000Y-66040000D01*
X125730000Y-72152000D02*
X125730000Y-69215000D01*
X91948000Y-33655000D02*
G75*
G03*
X91313000Y-33020000I-634999J1D01*
G01*
X88265000Y-66040000D02*
X93742000Y-66040000D01*
X100457000Y-96088200D02*
X92583000Y-96088200D01*
X87630000Y-62468000D02*
X87630000Y-65405000D01*
X67310000Y-72152000D02*
X67310000Y-69215000D01*
X72263000Y-38531800D02*
X80137000Y-38531800D01*
X146050000Y-36592000D02*
X146050000Y-33655000D01*
X141732000Y-100965000D02*
X141732000Y-96723200D01*
X141097000Y-38531800D02*
G75*
G03*
X141732000Y-37896800I1J634999D01*
G01*
X87630000Y-65405000D02*
G75*
G03*
X88265000Y-66040000I634999J-1D01*
G01*
X125730000Y-36592000D02*
X125730000Y-33655000D01*
X70993000Y-33020000D02*
X67945000Y-33020000D01*
X149225000Y-33020000D02*
G75*
G03*
X148590000Y-33655000I-1J-634999D01*
G01*
X67945000Y-33020000D02*
G75*
G03*
X67310000Y-33655000I-1J-634999D01*
G01*
X152908000Y-100965000D02*
X152908000Y-96723200D01*
X142367000Y-33020000D02*
G75*
G03*
X141732000Y-33655000I-1J-634999D01*
G01*
X131953000Y-101600000D02*
G75*
G03*
X132588000Y-100965000I1J634999D01*
G01*
X107950000Y-77708000D02*
X107950000Y-92472000D01*
X92583000Y-96088200D02*
G75*
G03*
X91948000Y-96723200I-1J-634999D01*
G01*
X67945000Y-68580000D02*
X73422000Y-68580000D01*
X133223000Y-38531800D02*
X141097000Y-38531800D01*
X104775000Y-101600000D02*
G75*
G03*
X105410000Y-100965000I1J634999D01*
G01*
X133223000Y-96088200D02*
G75*
G03*
X132588000Y-96723200I-1J-634999D01*
G01*
X141732000Y-96723200D02*
G75*
G03*
X141097000Y-96088200I-634999J1D01*
G01*
X71628000Y-37896800D02*
G75*
G03*
X72263000Y-38531800I634999J-1D01*
G01*
X145415000Y-68580000D02*
X139938000Y-68580000D01*
X121412000Y-100965000D02*
G75*
G03*
X122047000Y-101600000I634999J-1D01*
G01*
X148590000Y-72152000D02*
X148590000Y-69215000D01*
X105410000Y-69215000D02*
G75*
G03*
X104775000Y-68580000I-634999J1D01*
G01*
X112268000Y-33655000D02*
X112268000Y-37896800D01*
X146050000Y-62468000D02*
X146050000Y-65405000D01*
X107950000Y-36592000D02*
X107950000Y-33655000D01*
X132588000Y-100965000D02*
X132588000Y-96723200D01*
X128270000Y-100965000D02*
G75*
G03*
X128905000Y-101600000I634999J-1D01*
G01*
X161417000Y-96088200D02*
X153543000Y-96088200D01*
X166370000Y-33655000D02*
G75*
G03*
X165735000Y-33020000I-634999J1D01*
G01*
X128270000Y-36592000D02*
X128270000Y-33655000D01*
X146050000Y-69215000D02*
G75*
G03*
X145415000Y-68580000I-634999J1D01*
G01*
X88265000Y-68580000D02*
X93742000Y-68580000D01*
X162052000Y-33655000D02*
X162052000Y-37896800D01*
X112268000Y-100965000D02*
X112268000Y-96723200D01*
X71628000Y-33655000D02*
X71628000Y-37896800D01*
X148590000Y-100965000D02*
G75*
G03*
X149225000Y-101600000I634999J-1D01*
G01*
X101727000Y-33020000D02*
X104775000Y-33020000D01*
X85090000Y-33655000D02*
G75*
G03*
X84455000Y-33020000I-634999J1D01*
G01*
X153543000Y-96088200D02*
G75*
G03*
X152908000Y-96723200I-1J-634999D01*
G01*
X146050000Y-77708000D02*
X146050000Y-92472000D01*
X105410000Y-33655000D02*
G75*
G03*
X104775000Y-33020000I-634999J1D01*
G01*
X71628000Y-100965000D02*
X71628000Y-96723200D01*
X141732000Y-100965000D02*
G75*
G03*
X142367000Y-101600000I634999J-1D01*
G01*
X87630000Y-77708000D02*
X87630000Y-92472000D01*
X107950000Y-65405000D02*
G75*
G03*
X108585000Y-66040000I634999J-1D01*
G01*
X146050000Y-33655000D02*
G75*
G03*
X145415000Y-33020000I-634999J1D01*
G01*
X104775000Y-66040000D02*
X99298000Y-66040000D01*
X108585000Y-33020000D02*
G75*
G03*
X107950000Y-33655000I-1J-634999D01*
G01*
X132588000Y-37896800D02*
G75*
G03*
X133223000Y-38531800I634999J-1D01*
G01*
X166370000Y-69215000D02*
G75*
G03*
X165735000Y-68580000I-634999J1D01*
G01*
X67310000Y-65405000D02*
G75*
G03*
X67945000Y-66040000I634999J-1D01*
G01*
X120777000Y-38531800D02*
G75*
G03*
X121412000Y-37896800I1J634999D01*
G01*
X152273000Y-33020000D02*
X149225000Y-33020000D01*
X105410000Y-77708000D02*
X105410000Y-92472000D01*
X91313000Y-33020000D02*
X88265000Y-33020000D01*
X85090000Y-36592000D02*
X85090000Y-33655000D01*
X84455000Y-66040000D02*
X78978000Y-66040000D01*
X91313000Y-101600000D02*
G75*
G03*
X91948000Y-100965000I1J634999D01*
G01*
X166370000Y-72152000D02*
X166370000Y-98028000D01*
X100457000Y-38531800D02*
G75*
G03*
X101092000Y-37896800I1J634999D01*
G01*
X128270000Y-62468000D02*
X128270000Y-65405000D01*
X101092000Y-100965000D02*
X101092000Y-96723200D01*
X165735000Y-66040000D02*
G75*
G03*
X166370000Y-65405000I1J634999D01*
G01*
X88265000Y-33020000D02*
G75*
G03*
X87630000Y-33655000I-1J-634999D01*
G01*
X107950000Y-56912000D02*
X107950000Y-42148000D01*
D11*
X148590000Y-42148000D02*
G75*
G03*
X146050000Y-42148000I-1270000J0D01*
G01*
X146050000Y-36592000D02*
G75*
G03*
X148590000Y-36592000I1270000J0D01*
G01*
X119618000Y-66040000D02*
G75*
G03*
X119618000Y-68580000I0J-1270000D01*
G01*
X114062000Y-68580000D02*
G75*
G03*
X114062000Y-66040000I0J1270000D01*
G01*
X125730000Y-92472000D02*
G75*
G03*
X128270000Y-92472000I1270000J0D01*
G01*
X128270000Y-98028000D02*
G75*
G03*
X125730000Y-98028000I-1270000J0D01*
G01*
X128270000Y-77708000D02*
G75*
G03*
X125730000Y-77708000I-1270000J0D01*
G01*
X125730000Y-72152000D02*
G75*
G03*
X128270000Y-72152000I1270000J0D01*
G01*
X105410000Y-36592000D02*
G75*
G03*
X107950000Y-36592000I1270000J0D01*
G01*
X107950000Y-42148000D02*
G75*
G03*
X105410000Y-42148000I-1270000J0D01*
G01*
X134382000Y-68580000D02*
G75*
G03*
X134382000Y-66040000I0J1270000D01*
G01*
X139938000Y-66040000D02*
G75*
G03*
X139938000Y-68580000I0J-1270000D01*
G01*
X107950000Y-77708000D02*
G75*
G03*
X105410000Y-77708000I-1270000J0D01*
G01*
X105410000Y-72152000D02*
G75*
G03*
X107950000Y-72152000I1270000J0D01*
G01*
X85090000Y-72152000D02*
G75*
G03*
X87630000Y-72152000I1270000J0D01*
G01*
X87630000Y-77708000D02*
G75*
G03*
X85090000Y-77708000I-1270000J0D01*
G01*
X107950000Y-62468000D02*
G75*
G03*
X105410000Y-62468000I-1270000J0D01*
G01*
X105410000Y-56912000D02*
G75*
G03*
X107950000Y-56912000I1270000J0D01*
G01*
X87630000Y-98028000D02*
G75*
G03*
X85090000Y-98028000I-1270000J0D01*
G01*
X85090000Y-92472000D02*
G75*
G03*
X87630000Y-92472000I1270000J0D01*
G01*
X107950000Y-98028000D02*
G75*
G03*
X105410000Y-98028000I-1270000J0D01*
G01*
X105410000Y-92472000D02*
G75*
G03*
X107950000Y-92472000I1270000J0D01*
G01*
X146050000Y-56912000D02*
G75*
G03*
X148590000Y-56912000I1270000J0D01*
G01*
X148590000Y-62468000D02*
G75*
G03*
X146050000Y-62468000I-1270000J0D01*
G01*
X93742000Y-68580000D02*
G75*
G03*
X93742000Y-66040000I0J1270000D01*
G01*
X99298000Y-66040000D02*
G75*
G03*
X99298000Y-68580000I0J-1270000D01*
G01*
X160258000Y-66040000D02*
G75*
G03*
X160258000Y-68580000I0J-1270000D01*
G01*
X154702000Y-68580000D02*
G75*
G03*
X154702000Y-66040000I0J1270000D01*
G01*
X87630000Y-62468000D02*
G75*
G03*
X85090000Y-62468000I-1270000J0D01*
G01*
X85090000Y-56912000D02*
G75*
G03*
X87630000Y-56912000I1270000J0D01*
G01*
X125730000Y-56912000D02*
G75*
G03*
X128270000Y-56912000I1270000J0D01*
G01*
X128270000Y-62468000D02*
G75*
G03*
X125730000Y-62468000I-1270000J0D01*
G01*
X148590000Y-98028000D02*
G75*
G03*
X146050000Y-98028000I-1270000J0D01*
G01*
X146050000Y-92472000D02*
G75*
G03*
X148590000Y-92472000I1270000J0D01*
G01*
X146050000Y-72152000D02*
G75*
G03*
X148590000Y-72152000I1270000J0D01*
G01*
X148590000Y-77708000D02*
G75*
G03*
X146050000Y-77708000I-1270000J0D01*
G01*
X85090000Y-36592000D02*
G75*
G03*
X87630000Y-36592000I1270000J0D01*
G01*
X87630000Y-42148000D02*
G75*
G03*
X85090000Y-42148000I-1270000J0D01*
G01*
X125730000Y-36592000D02*
G75*
G03*
X128270000Y-36592000I1270000J0D01*
G01*
X128270000Y-42148000D02*
G75*
G03*
X125730000Y-42148000I-1270000J0D01*
G01*
X73422000Y-68580000D02*
G75*
G03*
X73422000Y-66040000I0J1270000D01*
G01*
X78978000Y-66040000D02*
G75*
G03*
X78978000Y-68580000I0J-1270000D01*
G01*
M02*
