G04 #@! TF.GenerationSoftware,KiCad,Pcbnew,(6.0.1)*
G04 #@! TF.CreationDate,2022-03-22T11:17:59+07:00*
G04 #@! TF.ProjectId,Kimiro,4b696d69-726f-42e6-9b69-6361645f7063,rev?*
G04 #@! TF.SameCoordinates,Original*
G04 #@! TF.FileFunction,Soldermask,Top*
G04 #@! TF.FilePolarity,Negative*
%FSLAX46Y46*%
G04 Gerber Fmt 4.6, Leading zero omitted, Abs format (unit mm)*
G04 Created by KiCad (PCBNEW (6.0.1)) date 2022-03-22 11:17:59*
%MOMM*%
%LPD*%
G01*
G04 APERTURE LIST*
G04 Aperture macros list*
%AMRoundRect*
0 Rectangle with rounded corners*
0 $1 Rounding radius*
0 $2 $3 $4 $5 $6 $7 $8 $9 X,Y pos of 4 corners*
0 Add a 4 corners polygon primitive as box body*
4,1,4,$2,$3,$4,$5,$6,$7,$8,$9,$2,$3,0*
0 Add four circle primitives for the rounded corners*
1,1,$1+$1,$2,$3*
1,1,$1+$1,$4,$5*
1,1,$1+$1,$6,$7*
1,1,$1+$1,$8,$9*
0 Add four rect primitives between the rounded corners*
20,1,$1+$1,$2,$3,$4,$5,0*
20,1,$1+$1,$4,$5,$6,$7,0*
20,1,$1+$1,$6,$7,$8,$9,0*
20,1,$1+$1,$8,$9,$2,$3,0*%
G04 Aperture macros list end*
%ADD10RoundRect,0.140000X0.140000X0.170000X-0.140000X0.170000X-0.140000X-0.170000X0.140000X-0.170000X0*%
%ADD11RoundRect,0.150000X-0.512500X-0.150000X0.512500X-0.150000X0.512500X0.150000X-0.512500X0.150000X0*%
%ADD12RoundRect,0.140000X-0.140000X-0.170000X0.140000X-0.170000X0.140000X0.170000X-0.140000X0.170000X0*%
%ADD13RoundRect,0.135000X-0.185000X0.135000X-0.185000X-0.135000X0.185000X-0.135000X0.185000X0.135000X0*%
%ADD14R,1.700000X1.700000*%
%ADD15O,1.700000X1.700000*%
%ADD16RoundRect,0.135000X-0.135000X-0.185000X0.135000X-0.185000X0.135000X0.185000X-0.135000X0.185000X0*%
%ADD17RoundRect,0.135000X0.185000X-0.135000X0.185000X0.135000X-0.185000X0.135000X-0.185000X-0.135000X0*%
%ADD18R,0.800000X0.350000*%
%ADD19R,0.350000X0.800000*%
%ADD20R,1.000000X1.500000*%
%ADD21R,0.600000X1.079000*%
%ADD22R,0.300000X1.079000*%
%ADD23O,1.000000X2.200000*%
%ADD24O,1.000000X1.800000*%
%ADD25RoundRect,0.218750X-0.256250X0.218750X-0.256250X-0.218750X0.256250X-0.218750X0.256250X0.218750X0*%
%ADD26RoundRect,0.062500X0.375000X0.062500X-0.375000X0.062500X-0.375000X-0.062500X0.375000X-0.062500X0*%
%ADD27RoundRect,0.062500X0.062500X0.375000X-0.062500X0.375000X-0.062500X-0.375000X0.062500X-0.375000X0*%
%ADD28R,1.600000X1.600000*%
%ADD29RoundRect,0.218750X0.218750X0.256250X-0.218750X0.256250X-0.218750X-0.256250X0.218750X-0.256250X0*%
%ADD30RoundRect,0.218750X0.256250X-0.218750X0.256250X0.218750X-0.256250X0.218750X-0.256250X-0.218750X0*%
%ADD31RoundRect,0.150000X0.512500X0.150000X-0.512500X0.150000X-0.512500X-0.150000X0.512500X-0.150000X0*%
%ADD32RoundRect,0.135000X0.135000X0.185000X-0.135000X0.185000X-0.135000X-0.185000X0.135000X-0.185000X0*%
%ADD33RoundRect,0.062500X-0.375000X-0.062500X0.375000X-0.062500X0.375000X0.062500X-0.375000X0.062500X0*%
%ADD34RoundRect,0.062500X-0.062500X-0.375000X0.062500X-0.375000X0.062500X0.375000X-0.062500X0.375000X0*%
%ADD35RoundRect,0.218750X-0.218750X-0.256250X0.218750X-0.256250X0.218750X0.256250X-0.218750X0.256250X0*%
%ADD36C,0.787400*%
G04 APERTURE END LIST*
D10*
X151939200Y-45745400D03*
X150979200Y-45745400D03*
D11*
X158398900Y-43068200D03*
X158398900Y-44018200D03*
X158398900Y-44968200D03*
X160673900Y-44968200D03*
X160673900Y-43068200D03*
D12*
X152935000Y-45567600D03*
X153895000Y-45567600D03*
X156110000Y-41148000D03*
X157070000Y-41148000D03*
D13*
X157174200Y-45895800D03*
X157174200Y-46915800D03*
D14*
X162940000Y-34290000D03*
D15*
X162940000Y-36830000D03*
X162940000Y-39370000D03*
X162940000Y-41910000D03*
X162940000Y-44450000D03*
X162940000Y-46990000D03*
X162940000Y-49530000D03*
X162940000Y-52070000D03*
X162940000Y-54610000D03*
X162940000Y-57150000D03*
X162940000Y-59690000D03*
X162940000Y-62230000D03*
X162940000Y-64770000D03*
D16*
X151076200Y-40462200D03*
X152096200Y-40462200D03*
D10*
X151939200Y-46812200D03*
X150979200Y-46812200D03*
D17*
X150976600Y-42851800D03*
X150976600Y-41831800D03*
D18*
X160920000Y-59869000D03*
X160920000Y-59219000D03*
X160920000Y-58569000D03*
X160920000Y-57919000D03*
X160920000Y-57269000D03*
X160920000Y-56619000D03*
X160920000Y-55969000D03*
X160920000Y-55319000D03*
X160920000Y-54669000D03*
X160920000Y-54019000D03*
X160920000Y-53369000D03*
X160920000Y-52719000D03*
X160920000Y-52069000D03*
X160920000Y-51419000D03*
X160920000Y-50769000D03*
X160920000Y-50119000D03*
X160920000Y-49469000D03*
D19*
X160520000Y-48269000D03*
X159870000Y-48269000D03*
X159220000Y-48269000D03*
X158570000Y-48269000D03*
X157920000Y-48269000D03*
X157270000Y-48269000D03*
X156620000Y-48269000D03*
X155970000Y-48269000D03*
X155320000Y-48269000D03*
X154670000Y-48269000D03*
X154020000Y-48269000D03*
X153370000Y-48269000D03*
X152720000Y-48269000D03*
X152070000Y-48269000D03*
X151420000Y-48269000D03*
X150770000Y-48269000D03*
X150120000Y-48269000D03*
D18*
X149720000Y-49469000D03*
X149720000Y-50119000D03*
X149720000Y-50769000D03*
X149720000Y-51419000D03*
X149720000Y-52069000D03*
X149720000Y-52719000D03*
X149720000Y-53369000D03*
X149720000Y-54019000D03*
X149720000Y-54669000D03*
X149720000Y-55319000D03*
X149720000Y-55969000D03*
X149720000Y-56619000D03*
X149720000Y-57269000D03*
X149720000Y-57919000D03*
X149720000Y-58569000D03*
X149720000Y-59219000D03*
X149720000Y-59869000D03*
D19*
X150770000Y-59769000D03*
X151420000Y-59769000D03*
X152070000Y-59769000D03*
X152720000Y-59769000D03*
X153370000Y-59769000D03*
D18*
X151420000Y-58569000D03*
X151420000Y-57919000D03*
X151420000Y-57269000D03*
X151420000Y-56619000D03*
D20*
X156870000Y-53519000D03*
X156870000Y-56369000D03*
X154070000Y-53519000D03*
X154070000Y-56369000D03*
D12*
X160148600Y-41935400D03*
X161108600Y-41935400D03*
D17*
X161111200Y-47042800D03*
X161111200Y-46022800D03*
D21*
X158509400Y-39134500D03*
X157709400Y-39134500D03*
D22*
X156559400Y-39134500D03*
X155559400Y-39134500D03*
X155059400Y-39134500D03*
X154059400Y-39134500D03*
D21*
X152909400Y-39134500D03*
X152109400Y-39134500D03*
X152109400Y-39134500D03*
X152909400Y-39134500D03*
D22*
X153559400Y-39134500D03*
X154559400Y-39134500D03*
X156059400Y-39134500D03*
X157059400Y-39134500D03*
D21*
X157709400Y-39134500D03*
X158509400Y-39134500D03*
D23*
X160884400Y-34630500D03*
D24*
X149734400Y-38630500D03*
X160884400Y-38630500D03*
D23*
X149734400Y-34630500D03*
D16*
X153209800Y-46736000D03*
X154229800Y-46736000D03*
D10*
X158949600Y-41935400D03*
X157989600Y-41935400D03*
D16*
X160118600Y-40868600D03*
X161138600Y-40868600D03*
D12*
X149480600Y-43688000D03*
X150440600Y-43688000D03*
D13*
X156183600Y-45895800D03*
X156183600Y-46915800D03*
D16*
X156105400Y-43230800D03*
X157125400Y-43230800D03*
D14*
X147700000Y-34290000D03*
D15*
X147700000Y-36830000D03*
X147700000Y-39370000D03*
X147700000Y-41910000D03*
X147700000Y-44450000D03*
X147700000Y-46990000D03*
X147700000Y-49530000D03*
X147700000Y-52070000D03*
X147700000Y-54610000D03*
X147700000Y-57150000D03*
X147700000Y-59690000D03*
X147700000Y-62230000D03*
X147700000Y-64770000D03*
D25*
X149782800Y-40970100D03*
X149782800Y-42545100D03*
D16*
X156080000Y-42240200D03*
X157100000Y-42240200D03*
X156105400Y-44119800D03*
X157125400Y-44119800D03*
D26*
X155004900Y-43549000D03*
X155004900Y-43049000D03*
X155004900Y-42549000D03*
X155004900Y-42049000D03*
D27*
X154317400Y-41361500D03*
X153817400Y-41361500D03*
X153317400Y-41361500D03*
X152817400Y-41361500D03*
D26*
X152129900Y-42049000D03*
X152129900Y-42549000D03*
X152129900Y-43049000D03*
X152129900Y-43549000D03*
D27*
X152817400Y-44236500D03*
X153317400Y-44236500D03*
X153817400Y-44236500D03*
X154317400Y-44236500D03*
D28*
X153567400Y-42799000D03*
D29*
X159866700Y-46380400D03*
X158291700Y-46380400D03*
D12*
X156135400Y-44983400D03*
X157095400Y-44983400D03*
D30*
X149782800Y-46431300D03*
X149782800Y-44856300D03*
D13*
X155193000Y-45972000D03*
X155193000Y-46992000D03*
D12*
X158679600Y-88334600D03*
X159639600Y-88334600D03*
D31*
X152219900Y-91011800D03*
X152219900Y-90061800D03*
X152219900Y-89111800D03*
X149944900Y-89111800D03*
X149944900Y-91011800D03*
D10*
X157683800Y-88512400D03*
X156723800Y-88512400D03*
D17*
X153444600Y-88184200D03*
X153444600Y-87164200D03*
D13*
X159642200Y-91228200D03*
X159642200Y-92248200D03*
D14*
X147678800Y-99790000D03*
D15*
X147678800Y-97250000D03*
X147678800Y-94710000D03*
X147678800Y-92170000D03*
X147678800Y-89630000D03*
X147678800Y-87090000D03*
X147678800Y-84550000D03*
X147678800Y-82010000D03*
X147678800Y-79470000D03*
X147678800Y-76930000D03*
X147678800Y-74390000D03*
X147678800Y-71850000D03*
X147678800Y-69310000D03*
D32*
X157409000Y-87344000D03*
X156389000Y-87344000D03*
D18*
X149698800Y-74211000D03*
X149698800Y-74861000D03*
X149698800Y-75511000D03*
X149698800Y-76161000D03*
X149698800Y-76811000D03*
X149698800Y-77461000D03*
X149698800Y-78111000D03*
X149698800Y-78761000D03*
X149698800Y-79411000D03*
X149698800Y-80061000D03*
X149698800Y-80711000D03*
X149698800Y-81361000D03*
X149698800Y-82011000D03*
X149698800Y-82661000D03*
X149698800Y-83311000D03*
X149698800Y-83961000D03*
X149698800Y-84611000D03*
D19*
X150098800Y-85811000D03*
X150748800Y-85811000D03*
X151398800Y-85811000D03*
X152048800Y-85811000D03*
X152698800Y-85811000D03*
X153348800Y-85811000D03*
X153998800Y-85811000D03*
X154648800Y-85811000D03*
X155298800Y-85811000D03*
X155948800Y-85811000D03*
X156598800Y-85811000D03*
X157248800Y-85811000D03*
X157898800Y-85811000D03*
X158548800Y-85811000D03*
X159198800Y-85811000D03*
X159848800Y-85811000D03*
X160498800Y-85811000D03*
D18*
X160898800Y-84611000D03*
X160898800Y-83961000D03*
X160898800Y-83311000D03*
X160898800Y-82661000D03*
X160898800Y-82011000D03*
X160898800Y-81361000D03*
X160898800Y-80711000D03*
X160898800Y-80061000D03*
X160898800Y-79411000D03*
X160898800Y-78761000D03*
X160898800Y-78111000D03*
X160898800Y-77461000D03*
X160898800Y-76811000D03*
X160898800Y-76161000D03*
X160898800Y-75511000D03*
X160898800Y-74861000D03*
X160898800Y-74211000D03*
D19*
X159848800Y-74311000D03*
X159198800Y-74311000D03*
X158548800Y-74311000D03*
X157898800Y-74311000D03*
X157248800Y-74311000D03*
D18*
X159198800Y-75511000D03*
X159198800Y-76161000D03*
X159198800Y-76811000D03*
X159198800Y-77461000D03*
D20*
X153748800Y-80561000D03*
X153748800Y-77711000D03*
X156548800Y-80561000D03*
X156548800Y-77711000D03*
D32*
X154513400Y-90849200D03*
X153493400Y-90849200D03*
D13*
X149507600Y-87037200D03*
X149507600Y-88057200D03*
D12*
X158679600Y-87267800D03*
X159639600Y-87267800D03*
D10*
X154508800Y-92932000D03*
X153548800Y-92932000D03*
D32*
X159542600Y-93617800D03*
X158522600Y-93617800D03*
D10*
X150470200Y-92144600D03*
X149510200Y-92144600D03*
D12*
X151669200Y-92144600D03*
X152629200Y-92144600D03*
D14*
X162918800Y-99790000D03*
D15*
X162918800Y-97250000D03*
X162918800Y-94710000D03*
X162918800Y-92170000D03*
X162918800Y-89630000D03*
X162918800Y-87090000D03*
X162918800Y-84550000D03*
X162918800Y-82010000D03*
X162918800Y-79470000D03*
X162918800Y-76930000D03*
X162918800Y-74390000D03*
X162918800Y-71850000D03*
X162918800Y-69310000D03*
D32*
X150500200Y-93211400D03*
X149480200Y-93211400D03*
D17*
X154435200Y-88184200D03*
X154435200Y-87164200D03*
D10*
X161138200Y-90392000D03*
X160178200Y-90392000D03*
D25*
X160836000Y-87648700D03*
X160836000Y-89223700D03*
D33*
X155613900Y-90531000D03*
X155613900Y-91031000D03*
X155613900Y-91531000D03*
X155613900Y-92031000D03*
D34*
X156301400Y-92718500D03*
X156801400Y-92718500D03*
X157301400Y-92718500D03*
X157801400Y-92718500D03*
D33*
X158488900Y-92031000D03*
X158488900Y-91531000D03*
X158488900Y-91031000D03*
X158488900Y-90531000D03*
D34*
X157801400Y-89843500D03*
X157301400Y-89843500D03*
X156801400Y-89843500D03*
X156301400Y-89843500D03*
D28*
X157051400Y-91281000D03*
D21*
X152109400Y-94945500D03*
X152909400Y-94945500D03*
D22*
X154059400Y-94945500D03*
X155059400Y-94945500D03*
X155559400Y-94945500D03*
X156559400Y-94945500D03*
D21*
X157709400Y-94945500D03*
X158509400Y-94945500D03*
X158509400Y-94945500D03*
X157709400Y-94945500D03*
D22*
X157059400Y-94945500D03*
X156059400Y-94945500D03*
X154559400Y-94945500D03*
X153559400Y-94945500D03*
D21*
X152909400Y-94945500D03*
X152109400Y-94945500D03*
D23*
X149734400Y-99449500D03*
D24*
X160884400Y-95449500D03*
X149734400Y-95449500D03*
D23*
X160884400Y-99449500D03*
D32*
X154538800Y-91839800D03*
X153518800Y-91839800D03*
X154513400Y-89960200D03*
X153493400Y-89960200D03*
D35*
X150752100Y-87699600D03*
X152327100Y-87699600D03*
D17*
X155425800Y-88108000D03*
X155425800Y-87088000D03*
D10*
X154483400Y-89096600D03*
X153523400Y-89096600D03*
D30*
X160836000Y-93109900D03*
X160836000Y-91534900D03*
D36*
X155309400Y-66024000D03*
X154039400Y-68056000D03*
X154039400Y-66024000D03*
X155309400Y-68056000D03*
X156579400Y-66024000D03*
X156579400Y-68056000D03*
D10*
X132159200Y-45745400D03*
X131199200Y-45745400D03*
D11*
X138618900Y-43068200D03*
X138618900Y-44018200D03*
X138618900Y-44968200D03*
X140893900Y-44968200D03*
X140893900Y-43068200D03*
D12*
X133155000Y-45567600D03*
X134115000Y-45567600D03*
X136330000Y-41148000D03*
X137290000Y-41148000D03*
D13*
X137394200Y-45895800D03*
X137394200Y-46915800D03*
D14*
X143160000Y-34290000D03*
D15*
X143160000Y-36830000D03*
X143160000Y-39370000D03*
X143160000Y-41910000D03*
X143160000Y-44450000D03*
X143160000Y-46990000D03*
X143160000Y-49530000D03*
X143160000Y-52070000D03*
X143160000Y-54610000D03*
X143160000Y-57150000D03*
X143160000Y-59690000D03*
X143160000Y-62230000D03*
X143160000Y-64770000D03*
D16*
X131296200Y-40462200D03*
X132316200Y-40462200D03*
D10*
X132159200Y-46812200D03*
X131199200Y-46812200D03*
D17*
X131196600Y-42851800D03*
X131196600Y-41831800D03*
D18*
X141140000Y-59869000D03*
X141140000Y-59219000D03*
X141140000Y-58569000D03*
X141140000Y-57919000D03*
X141140000Y-57269000D03*
X141140000Y-56619000D03*
X141140000Y-55969000D03*
X141140000Y-55319000D03*
X141140000Y-54669000D03*
X141140000Y-54019000D03*
X141140000Y-53369000D03*
X141140000Y-52719000D03*
X141140000Y-52069000D03*
X141140000Y-51419000D03*
X141140000Y-50769000D03*
X141140000Y-50119000D03*
X141140000Y-49469000D03*
D19*
X140740000Y-48269000D03*
X140090000Y-48269000D03*
X139440000Y-48269000D03*
X138790000Y-48269000D03*
X138140000Y-48269000D03*
X137490000Y-48269000D03*
X136840000Y-48269000D03*
X136190000Y-48269000D03*
X135540000Y-48269000D03*
X134890000Y-48269000D03*
X134240000Y-48269000D03*
X133590000Y-48269000D03*
X132940000Y-48269000D03*
X132290000Y-48269000D03*
X131640000Y-48269000D03*
X130990000Y-48269000D03*
X130340000Y-48269000D03*
D18*
X129940000Y-49469000D03*
X129940000Y-50119000D03*
X129940000Y-50769000D03*
X129940000Y-51419000D03*
X129940000Y-52069000D03*
X129940000Y-52719000D03*
X129940000Y-53369000D03*
X129940000Y-54019000D03*
X129940000Y-54669000D03*
X129940000Y-55319000D03*
X129940000Y-55969000D03*
X129940000Y-56619000D03*
X129940000Y-57269000D03*
X129940000Y-57919000D03*
X129940000Y-58569000D03*
X129940000Y-59219000D03*
X129940000Y-59869000D03*
D19*
X130990000Y-59769000D03*
X131640000Y-59769000D03*
X132290000Y-59769000D03*
X132940000Y-59769000D03*
X133590000Y-59769000D03*
D18*
X131640000Y-58569000D03*
X131640000Y-57919000D03*
X131640000Y-57269000D03*
X131640000Y-56619000D03*
D20*
X137090000Y-53519000D03*
X137090000Y-56369000D03*
X134290000Y-53519000D03*
X134290000Y-56369000D03*
D12*
X140368600Y-41935400D03*
X141328600Y-41935400D03*
D17*
X141331200Y-47042800D03*
X141331200Y-46022800D03*
D21*
X138729400Y-39134500D03*
X137929400Y-39134500D03*
D22*
X136779400Y-39134500D03*
X135779400Y-39134500D03*
X135279400Y-39134500D03*
X134279400Y-39134500D03*
D21*
X133129400Y-39134500D03*
X132329400Y-39134500D03*
X132329400Y-39134500D03*
X133129400Y-39134500D03*
D22*
X133779400Y-39134500D03*
X134779400Y-39134500D03*
X136279400Y-39134500D03*
X137279400Y-39134500D03*
D21*
X137929400Y-39134500D03*
X138729400Y-39134500D03*
D23*
X141104400Y-34630500D03*
D24*
X129954400Y-38630500D03*
X141104400Y-38630500D03*
D23*
X129954400Y-34630500D03*
D16*
X133429800Y-46736000D03*
X134449800Y-46736000D03*
D10*
X139169600Y-41935400D03*
X138209600Y-41935400D03*
D16*
X140338600Y-40868600D03*
X141358600Y-40868600D03*
D12*
X129700600Y-43688000D03*
X130660600Y-43688000D03*
D13*
X136403600Y-45895800D03*
X136403600Y-46915800D03*
D16*
X136325400Y-43230800D03*
X137345400Y-43230800D03*
D14*
X127920000Y-34290000D03*
D15*
X127920000Y-36830000D03*
X127920000Y-39370000D03*
X127920000Y-41910000D03*
X127920000Y-44450000D03*
X127920000Y-46990000D03*
X127920000Y-49530000D03*
X127920000Y-52070000D03*
X127920000Y-54610000D03*
X127920000Y-57150000D03*
X127920000Y-59690000D03*
X127920000Y-62230000D03*
X127920000Y-64770000D03*
D25*
X130002800Y-40970100D03*
X130002800Y-42545100D03*
D16*
X136300000Y-42240200D03*
X137320000Y-42240200D03*
X136325400Y-44119800D03*
X137345400Y-44119800D03*
D26*
X135224900Y-43549000D03*
X135224900Y-43049000D03*
X135224900Y-42549000D03*
X135224900Y-42049000D03*
D27*
X134537400Y-41361500D03*
X134037400Y-41361500D03*
X133537400Y-41361500D03*
X133037400Y-41361500D03*
D26*
X132349900Y-42049000D03*
X132349900Y-42549000D03*
X132349900Y-43049000D03*
X132349900Y-43549000D03*
D27*
X133037400Y-44236500D03*
X133537400Y-44236500D03*
X134037400Y-44236500D03*
X134537400Y-44236500D03*
D28*
X133787400Y-42799000D03*
D29*
X140086700Y-46380400D03*
X138511700Y-46380400D03*
D12*
X136355400Y-44983400D03*
X137315400Y-44983400D03*
D30*
X130002800Y-46431300D03*
X130002800Y-44856300D03*
D13*
X135413000Y-45972000D03*
X135413000Y-46992000D03*
D12*
X138899600Y-88334600D03*
X139859600Y-88334600D03*
D31*
X132439900Y-91011800D03*
X132439900Y-90061800D03*
X132439900Y-89111800D03*
X130164900Y-89111800D03*
X130164900Y-91011800D03*
D10*
X137903800Y-88512400D03*
X136943800Y-88512400D03*
D17*
X133664600Y-88184200D03*
X133664600Y-87164200D03*
D13*
X139862200Y-91228200D03*
X139862200Y-92248200D03*
D14*
X127898800Y-99790000D03*
D15*
X127898800Y-97250000D03*
X127898800Y-94710000D03*
X127898800Y-92170000D03*
X127898800Y-89630000D03*
X127898800Y-87090000D03*
X127898800Y-84550000D03*
X127898800Y-82010000D03*
X127898800Y-79470000D03*
X127898800Y-76930000D03*
X127898800Y-74390000D03*
X127898800Y-71850000D03*
X127898800Y-69310000D03*
D32*
X137629000Y-87344000D03*
X136609000Y-87344000D03*
D18*
X129918800Y-74211000D03*
X129918800Y-74861000D03*
X129918800Y-75511000D03*
X129918800Y-76161000D03*
X129918800Y-76811000D03*
X129918800Y-77461000D03*
X129918800Y-78111000D03*
X129918800Y-78761000D03*
X129918800Y-79411000D03*
X129918800Y-80061000D03*
X129918800Y-80711000D03*
X129918800Y-81361000D03*
X129918800Y-82011000D03*
X129918800Y-82661000D03*
X129918800Y-83311000D03*
X129918800Y-83961000D03*
X129918800Y-84611000D03*
D19*
X130318800Y-85811000D03*
X130968800Y-85811000D03*
X131618800Y-85811000D03*
X132268800Y-85811000D03*
X132918800Y-85811000D03*
X133568800Y-85811000D03*
X134218800Y-85811000D03*
X134868800Y-85811000D03*
X135518800Y-85811000D03*
X136168800Y-85811000D03*
X136818800Y-85811000D03*
X137468800Y-85811000D03*
X138118800Y-85811000D03*
X138768800Y-85811000D03*
X139418800Y-85811000D03*
X140068800Y-85811000D03*
X140718800Y-85811000D03*
D18*
X141118800Y-84611000D03*
X141118800Y-83961000D03*
X141118800Y-83311000D03*
X141118800Y-82661000D03*
X141118800Y-82011000D03*
X141118800Y-81361000D03*
X141118800Y-80711000D03*
X141118800Y-80061000D03*
X141118800Y-79411000D03*
X141118800Y-78761000D03*
X141118800Y-78111000D03*
X141118800Y-77461000D03*
X141118800Y-76811000D03*
X141118800Y-76161000D03*
X141118800Y-75511000D03*
X141118800Y-74861000D03*
X141118800Y-74211000D03*
D19*
X140068800Y-74311000D03*
X139418800Y-74311000D03*
X138768800Y-74311000D03*
X138118800Y-74311000D03*
X137468800Y-74311000D03*
D18*
X139418800Y-75511000D03*
X139418800Y-76161000D03*
X139418800Y-76811000D03*
X139418800Y-77461000D03*
D20*
X133968800Y-80561000D03*
X133968800Y-77711000D03*
X136768800Y-80561000D03*
X136768800Y-77711000D03*
D32*
X134733400Y-90849200D03*
X133713400Y-90849200D03*
D13*
X129727600Y-87037200D03*
X129727600Y-88057200D03*
D12*
X138899600Y-87267800D03*
X139859600Y-87267800D03*
D10*
X134728800Y-92932000D03*
X133768800Y-92932000D03*
D32*
X139762600Y-93617800D03*
X138742600Y-93617800D03*
D10*
X130690200Y-92144600D03*
X129730200Y-92144600D03*
D12*
X131889200Y-92144600D03*
X132849200Y-92144600D03*
D14*
X143138800Y-99790000D03*
D15*
X143138800Y-97250000D03*
X143138800Y-94710000D03*
X143138800Y-92170000D03*
X143138800Y-89630000D03*
X143138800Y-87090000D03*
X143138800Y-84550000D03*
X143138800Y-82010000D03*
X143138800Y-79470000D03*
X143138800Y-76930000D03*
X143138800Y-74390000D03*
X143138800Y-71850000D03*
X143138800Y-69310000D03*
D32*
X130720200Y-93211400D03*
X129700200Y-93211400D03*
D17*
X134655200Y-88184200D03*
X134655200Y-87164200D03*
D10*
X141358200Y-90392000D03*
X140398200Y-90392000D03*
D25*
X141056000Y-87648700D03*
X141056000Y-89223700D03*
D33*
X135833900Y-90531000D03*
X135833900Y-91031000D03*
X135833900Y-91531000D03*
X135833900Y-92031000D03*
D34*
X136521400Y-92718500D03*
X137021400Y-92718500D03*
X137521400Y-92718500D03*
X138021400Y-92718500D03*
D33*
X138708900Y-92031000D03*
X138708900Y-91531000D03*
X138708900Y-91031000D03*
X138708900Y-90531000D03*
D34*
X138021400Y-89843500D03*
X137521400Y-89843500D03*
X137021400Y-89843500D03*
X136521400Y-89843500D03*
D28*
X137271400Y-91281000D03*
D21*
X132329400Y-94945500D03*
X133129400Y-94945500D03*
D22*
X134279400Y-94945500D03*
X135279400Y-94945500D03*
X135779400Y-94945500D03*
X136779400Y-94945500D03*
D21*
X137929400Y-94945500D03*
X138729400Y-94945500D03*
X138729400Y-94945500D03*
X137929400Y-94945500D03*
D22*
X137279400Y-94945500D03*
X136279400Y-94945500D03*
X134779400Y-94945500D03*
X133779400Y-94945500D03*
D21*
X133129400Y-94945500D03*
X132329400Y-94945500D03*
D23*
X129954400Y-99449500D03*
D24*
X141104400Y-95449500D03*
X129954400Y-95449500D03*
D23*
X141104400Y-99449500D03*
D32*
X134758800Y-91839800D03*
X133738800Y-91839800D03*
X134733400Y-89960200D03*
X133713400Y-89960200D03*
D35*
X130972100Y-87699600D03*
X132547100Y-87699600D03*
D17*
X135645800Y-88108000D03*
X135645800Y-87088000D03*
D10*
X134703400Y-89096600D03*
X133743400Y-89096600D03*
D30*
X141056000Y-93109900D03*
X141056000Y-91534900D03*
D36*
X144414000Y-74390000D03*
X146446000Y-74390000D03*
X144414000Y-73120000D03*
X146446000Y-71850000D03*
X144414000Y-71850000D03*
X146446000Y-73120000D03*
X144414000Y-97250000D03*
X146446000Y-97250000D03*
X144414000Y-95980000D03*
X146446000Y-94710000D03*
X144414000Y-94710000D03*
X146446000Y-95980000D03*
X135529400Y-66024000D03*
X134259400Y-68056000D03*
X134259400Y-66024000D03*
X135529400Y-68056000D03*
X136799400Y-66024000D03*
X136799400Y-68056000D03*
X144414000Y-62230000D03*
X146446000Y-62230000D03*
X144414000Y-60960000D03*
X146446000Y-59690000D03*
X144414000Y-59690000D03*
X146446000Y-60960000D03*
X144414000Y-39370000D03*
X146446000Y-39370000D03*
X144414000Y-38100000D03*
X146446000Y-36830000D03*
X144414000Y-36830000D03*
X146446000Y-38100000D03*
D10*
X112379200Y-45745400D03*
X111419200Y-45745400D03*
D11*
X118838900Y-43068200D03*
X118838900Y-44018200D03*
X118838900Y-44968200D03*
X121113900Y-44968200D03*
X121113900Y-43068200D03*
D12*
X113375000Y-45567600D03*
X114335000Y-45567600D03*
X116550000Y-41148000D03*
X117510000Y-41148000D03*
D13*
X117614200Y-45895800D03*
X117614200Y-46915800D03*
D14*
X123380000Y-34290000D03*
D15*
X123380000Y-36830000D03*
X123380000Y-39370000D03*
X123380000Y-41910000D03*
X123380000Y-44450000D03*
X123380000Y-46990000D03*
X123380000Y-49530000D03*
X123380000Y-52070000D03*
X123380000Y-54610000D03*
X123380000Y-57150000D03*
X123380000Y-59690000D03*
X123380000Y-62230000D03*
X123380000Y-64770000D03*
D16*
X111516200Y-40462200D03*
X112536200Y-40462200D03*
D10*
X112379200Y-46812200D03*
X111419200Y-46812200D03*
D17*
X111416600Y-42851800D03*
X111416600Y-41831800D03*
D18*
X121360000Y-59869000D03*
X121360000Y-59219000D03*
X121360000Y-58569000D03*
X121360000Y-57919000D03*
X121360000Y-57269000D03*
X121360000Y-56619000D03*
X121360000Y-55969000D03*
X121360000Y-55319000D03*
X121360000Y-54669000D03*
X121360000Y-54019000D03*
X121360000Y-53369000D03*
X121360000Y-52719000D03*
X121360000Y-52069000D03*
X121360000Y-51419000D03*
X121360000Y-50769000D03*
X121360000Y-50119000D03*
X121360000Y-49469000D03*
D19*
X120960000Y-48269000D03*
X120310000Y-48269000D03*
X119660000Y-48269000D03*
X119010000Y-48269000D03*
X118360000Y-48269000D03*
X117710000Y-48269000D03*
X117060000Y-48269000D03*
X116410000Y-48269000D03*
X115760000Y-48269000D03*
X115110000Y-48269000D03*
X114460000Y-48269000D03*
X113810000Y-48269000D03*
X113160000Y-48269000D03*
X112510000Y-48269000D03*
X111860000Y-48269000D03*
X111210000Y-48269000D03*
X110560000Y-48269000D03*
D18*
X110160000Y-49469000D03*
X110160000Y-50119000D03*
X110160000Y-50769000D03*
X110160000Y-51419000D03*
X110160000Y-52069000D03*
X110160000Y-52719000D03*
X110160000Y-53369000D03*
X110160000Y-54019000D03*
X110160000Y-54669000D03*
X110160000Y-55319000D03*
X110160000Y-55969000D03*
X110160000Y-56619000D03*
X110160000Y-57269000D03*
X110160000Y-57919000D03*
X110160000Y-58569000D03*
X110160000Y-59219000D03*
X110160000Y-59869000D03*
D19*
X111210000Y-59769000D03*
X111860000Y-59769000D03*
X112510000Y-59769000D03*
X113160000Y-59769000D03*
X113810000Y-59769000D03*
D18*
X111860000Y-58569000D03*
X111860000Y-57919000D03*
X111860000Y-57269000D03*
X111860000Y-56619000D03*
D20*
X117310000Y-53519000D03*
X117310000Y-56369000D03*
X114510000Y-53519000D03*
X114510000Y-56369000D03*
D12*
X120588600Y-41935400D03*
X121548600Y-41935400D03*
D17*
X121551200Y-47042800D03*
X121551200Y-46022800D03*
D21*
X118949400Y-39134500D03*
X118149400Y-39134500D03*
D22*
X116999400Y-39134500D03*
X115999400Y-39134500D03*
X115499400Y-39134500D03*
X114499400Y-39134500D03*
D21*
X113349400Y-39134500D03*
X112549400Y-39134500D03*
X112549400Y-39134500D03*
X113349400Y-39134500D03*
D22*
X113999400Y-39134500D03*
X114999400Y-39134500D03*
X116499400Y-39134500D03*
X117499400Y-39134500D03*
D21*
X118149400Y-39134500D03*
X118949400Y-39134500D03*
D23*
X121324400Y-34630500D03*
D24*
X110174400Y-38630500D03*
X121324400Y-38630500D03*
D23*
X110174400Y-34630500D03*
D16*
X113649800Y-46736000D03*
X114669800Y-46736000D03*
D10*
X119389600Y-41935400D03*
X118429600Y-41935400D03*
D16*
X120558600Y-40868600D03*
X121578600Y-40868600D03*
D12*
X109920600Y-43688000D03*
X110880600Y-43688000D03*
D13*
X116623600Y-45895800D03*
X116623600Y-46915800D03*
D16*
X116545400Y-43230800D03*
X117565400Y-43230800D03*
D14*
X108140000Y-34290000D03*
D15*
X108140000Y-36830000D03*
X108140000Y-39370000D03*
X108140000Y-41910000D03*
X108140000Y-44450000D03*
X108140000Y-46990000D03*
X108140000Y-49530000D03*
X108140000Y-52070000D03*
X108140000Y-54610000D03*
X108140000Y-57150000D03*
X108140000Y-59690000D03*
X108140000Y-62230000D03*
X108140000Y-64770000D03*
D25*
X110222800Y-40970100D03*
X110222800Y-42545100D03*
D16*
X116520000Y-42240200D03*
X117540000Y-42240200D03*
X116545400Y-44119800D03*
X117565400Y-44119800D03*
D26*
X115444900Y-43549000D03*
X115444900Y-43049000D03*
X115444900Y-42549000D03*
X115444900Y-42049000D03*
D27*
X114757400Y-41361500D03*
X114257400Y-41361500D03*
X113757400Y-41361500D03*
X113257400Y-41361500D03*
D26*
X112569900Y-42049000D03*
X112569900Y-42549000D03*
X112569900Y-43049000D03*
X112569900Y-43549000D03*
D27*
X113257400Y-44236500D03*
X113757400Y-44236500D03*
X114257400Y-44236500D03*
X114757400Y-44236500D03*
D28*
X114007400Y-42799000D03*
D29*
X120306700Y-46380400D03*
X118731700Y-46380400D03*
D12*
X116575400Y-44983400D03*
X117535400Y-44983400D03*
D30*
X110222800Y-46431300D03*
X110222800Y-44856300D03*
D13*
X115633000Y-45972000D03*
X115633000Y-46992000D03*
D12*
X119119600Y-88334600D03*
X120079600Y-88334600D03*
D31*
X112659900Y-91011800D03*
X112659900Y-90061800D03*
X112659900Y-89111800D03*
X110384900Y-89111800D03*
X110384900Y-91011800D03*
D10*
X118123800Y-88512400D03*
X117163800Y-88512400D03*
D17*
X113884600Y-88184200D03*
X113884600Y-87164200D03*
D13*
X120082200Y-91228200D03*
X120082200Y-92248200D03*
D14*
X108118800Y-99790000D03*
D15*
X108118800Y-97250000D03*
X108118800Y-94710000D03*
X108118800Y-92170000D03*
X108118800Y-89630000D03*
X108118800Y-87090000D03*
X108118800Y-84550000D03*
X108118800Y-82010000D03*
X108118800Y-79470000D03*
X108118800Y-76930000D03*
X108118800Y-74390000D03*
X108118800Y-71850000D03*
X108118800Y-69310000D03*
D32*
X117849000Y-87344000D03*
X116829000Y-87344000D03*
D18*
X110138800Y-74211000D03*
X110138800Y-74861000D03*
X110138800Y-75511000D03*
X110138800Y-76161000D03*
X110138800Y-76811000D03*
X110138800Y-77461000D03*
X110138800Y-78111000D03*
X110138800Y-78761000D03*
X110138800Y-79411000D03*
X110138800Y-80061000D03*
X110138800Y-80711000D03*
X110138800Y-81361000D03*
X110138800Y-82011000D03*
X110138800Y-82661000D03*
X110138800Y-83311000D03*
X110138800Y-83961000D03*
X110138800Y-84611000D03*
D19*
X110538800Y-85811000D03*
X111188800Y-85811000D03*
X111838800Y-85811000D03*
X112488800Y-85811000D03*
X113138800Y-85811000D03*
X113788800Y-85811000D03*
X114438800Y-85811000D03*
X115088800Y-85811000D03*
X115738800Y-85811000D03*
X116388800Y-85811000D03*
X117038800Y-85811000D03*
X117688800Y-85811000D03*
X118338800Y-85811000D03*
X118988800Y-85811000D03*
X119638800Y-85811000D03*
X120288800Y-85811000D03*
X120938800Y-85811000D03*
D18*
X121338800Y-84611000D03*
X121338800Y-83961000D03*
X121338800Y-83311000D03*
X121338800Y-82661000D03*
X121338800Y-82011000D03*
X121338800Y-81361000D03*
X121338800Y-80711000D03*
X121338800Y-80061000D03*
X121338800Y-79411000D03*
X121338800Y-78761000D03*
X121338800Y-78111000D03*
X121338800Y-77461000D03*
X121338800Y-76811000D03*
X121338800Y-76161000D03*
X121338800Y-75511000D03*
X121338800Y-74861000D03*
X121338800Y-74211000D03*
D19*
X120288800Y-74311000D03*
X119638800Y-74311000D03*
X118988800Y-74311000D03*
X118338800Y-74311000D03*
X117688800Y-74311000D03*
D18*
X119638800Y-75511000D03*
X119638800Y-76161000D03*
X119638800Y-76811000D03*
X119638800Y-77461000D03*
D20*
X114188800Y-80561000D03*
X114188800Y-77711000D03*
X116988800Y-80561000D03*
X116988800Y-77711000D03*
D32*
X114953400Y-90849200D03*
X113933400Y-90849200D03*
D13*
X109947600Y-87037200D03*
X109947600Y-88057200D03*
D12*
X119119600Y-87267800D03*
X120079600Y-87267800D03*
D10*
X114948800Y-92932000D03*
X113988800Y-92932000D03*
D32*
X119982600Y-93617800D03*
X118962600Y-93617800D03*
D10*
X110910200Y-92144600D03*
X109950200Y-92144600D03*
D12*
X112109200Y-92144600D03*
X113069200Y-92144600D03*
D14*
X123358800Y-99790000D03*
D15*
X123358800Y-97250000D03*
X123358800Y-94710000D03*
X123358800Y-92170000D03*
X123358800Y-89630000D03*
X123358800Y-87090000D03*
X123358800Y-84550000D03*
X123358800Y-82010000D03*
X123358800Y-79470000D03*
X123358800Y-76930000D03*
X123358800Y-74390000D03*
X123358800Y-71850000D03*
X123358800Y-69310000D03*
D32*
X110940200Y-93211400D03*
X109920200Y-93211400D03*
D17*
X114875200Y-88184200D03*
X114875200Y-87164200D03*
D10*
X121578200Y-90392000D03*
X120618200Y-90392000D03*
D25*
X121276000Y-87648700D03*
X121276000Y-89223700D03*
D33*
X116053900Y-90531000D03*
X116053900Y-91031000D03*
X116053900Y-91531000D03*
X116053900Y-92031000D03*
D34*
X116741400Y-92718500D03*
X117241400Y-92718500D03*
X117741400Y-92718500D03*
X118241400Y-92718500D03*
D33*
X118928900Y-92031000D03*
X118928900Y-91531000D03*
X118928900Y-91031000D03*
X118928900Y-90531000D03*
D34*
X118241400Y-89843500D03*
X117741400Y-89843500D03*
X117241400Y-89843500D03*
X116741400Y-89843500D03*
D28*
X117491400Y-91281000D03*
D21*
X112549400Y-94945500D03*
X113349400Y-94945500D03*
D22*
X114499400Y-94945500D03*
X115499400Y-94945500D03*
X115999400Y-94945500D03*
X116999400Y-94945500D03*
D21*
X118149400Y-94945500D03*
X118949400Y-94945500D03*
X118949400Y-94945500D03*
X118149400Y-94945500D03*
D22*
X117499400Y-94945500D03*
X116499400Y-94945500D03*
X114999400Y-94945500D03*
X113999400Y-94945500D03*
D21*
X113349400Y-94945500D03*
X112549400Y-94945500D03*
D23*
X110174400Y-99449500D03*
D24*
X121324400Y-95449500D03*
X110174400Y-95449500D03*
D23*
X121324400Y-99449500D03*
D32*
X114978800Y-91839800D03*
X113958800Y-91839800D03*
X114953400Y-89960200D03*
X113933400Y-89960200D03*
D35*
X111192100Y-87699600D03*
X112767100Y-87699600D03*
D17*
X115865800Y-88108000D03*
X115865800Y-87088000D03*
D10*
X114923400Y-89096600D03*
X113963400Y-89096600D03*
D30*
X121276000Y-93109900D03*
X121276000Y-91534900D03*
D36*
X124634000Y-74390000D03*
X126666000Y-74390000D03*
X124634000Y-73120000D03*
X126666000Y-71850000D03*
X124634000Y-71850000D03*
X126666000Y-73120000D03*
X124634000Y-97250000D03*
X126666000Y-97250000D03*
X124634000Y-95980000D03*
X126666000Y-94710000D03*
X124634000Y-94710000D03*
X126666000Y-95980000D03*
X115749400Y-66024000D03*
X114479400Y-68056000D03*
X114479400Y-66024000D03*
X115749400Y-68056000D03*
X117019400Y-66024000D03*
X117019400Y-68056000D03*
X124634000Y-62230000D03*
X126666000Y-62230000D03*
X124634000Y-60960000D03*
X126666000Y-59690000D03*
X124634000Y-59690000D03*
X126666000Y-60960000D03*
X124634000Y-39370000D03*
X126666000Y-39370000D03*
X124634000Y-38100000D03*
X126666000Y-36830000D03*
X124634000Y-36830000D03*
X126666000Y-38100000D03*
D10*
X92599200Y-45745400D03*
X91639200Y-45745400D03*
D11*
X99058900Y-43068200D03*
X99058900Y-44018200D03*
X99058900Y-44968200D03*
X101333900Y-44968200D03*
X101333900Y-43068200D03*
D12*
X93595000Y-45567600D03*
X94555000Y-45567600D03*
X96770000Y-41148000D03*
X97730000Y-41148000D03*
D13*
X97834200Y-45895800D03*
X97834200Y-46915800D03*
D14*
X103600000Y-34290000D03*
D15*
X103600000Y-36830000D03*
X103600000Y-39370000D03*
X103600000Y-41910000D03*
X103600000Y-44450000D03*
X103600000Y-46990000D03*
X103600000Y-49530000D03*
X103600000Y-52070000D03*
X103600000Y-54610000D03*
X103600000Y-57150000D03*
X103600000Y-59690000D03*
X103600000Y-62230000D03*
X103600000Y-64770000D03*
D16*
X91736200Y-40462200D03*
X92756200Y-40462200D03*
D10*
X92599200Y-46812200D03*
X91639200Y-46812200D03*
D17*
X91636600Y-42851800D03*
X91636600Y-41831800D03*
D18*
X101580000Y-59869000D03*
X101580000Y-59219000D03*
X101580000Y-58569000D03*
X101580000Y-57919000D03*
X101580000Y-57269000D03*
X101580000Y-56619000D03*
X101580000Y-55969000D03*
X101580000Y-55319000D03*
X101580000Y-54669000D03*
X101580000Y-54019000D03*
X101580000Y-53369000D03*
X101580000Y-52719000D03*
X101580000Y-52069000D03*
X101580000Y-51419000D03*
X101580000Y-50769000D03*
X101580000Y-50119000D03*
X101580000Y-49469000D03*
D19*
X101180000Y-48269000D03*
X100530000Y-48269000D03*
X99880000Y-48269000D03*
X99230000Y-48269000D03*
X98580000Y-48269000D03*
X97930000Y-48269000D03*
X97280000Y-48269000D03*
X96630000Y-48269000D03*
X95980000Y-48269000D03*
X95330000Y-48269000D03*
X94680000Y-48269000D03*
X94030000Y-48269000D03*
X93380000Y-48269000D03*
X92730000Y-48269000D03*
X92080000Y-48269000D03*
X91430000Y-48269000D03*
X90780000Y-48269000D03*
D18*
X90380000Y-49469000D03*
X90380000Y-50119000D03*
X90380000Y-50769000D03*
X90380000Y-51419000D03*
X90380000Y-52069000D03*
X90380000Y-52719000D03*
X90380000Y-53369000D03*
X90380000Y-54019000D03*
X90380000Y-54669000D03*
X90380000Y-55319000D03*
X90380000Y-55969000D03*
X90380000Y-56619000D03*
X90380000Y-57269000D03*
X90380000Y-57919000D03*
X90380000Y-58569000D03*
X90380000Y-59219000D03*
X90380000Y-59869000D03*
D19*
X91430000Y-59769000D03*
X92080000Y-59769000D03*
X92730000Y-59769000D03*
X93380000Y-59769000D03*
X94030000Y-59769000D03*
D18*
X92080000Y-58569000D03*
X92080000Y-57919000D03*
X92080000Y-57269000D03*
X92080000Y-56619000D03*
D20*
X97530000Y-53519000D03*
X97530000Y-56369000D03*
X94730000Y-53519000D03*
X94730000Y-56369000D03*
D12*
X100808600Y-41935400D03*
X101768600Y-41935400D03*
D17*
X101771200Y-47042800D03*
X101771200Y-46022800D03*
D21*
X99169400Y-39134500D03*
X98369400Y-39134500D03*
D22*
X97219400Y-39134500D03*
X96219400Y-39134500D03*
X95719400Y-39134500D03*
X94719400Y-39134500D03*
D21*
X93569400Y-39134500D03*
X92769400Y-39134500D03*
X92769400Y-39134500D03*
X93569400Y-39134500D03*
D22*
X94219400Y-39134500D03*
X95219400Y-39134500D03*
X96719400Y-39134500D03*
X97719400Y-39134500D03*
D21*
X98369400Y-39134500D03*
X99169400Y-39134500D03*
D23*
X101544400Y-34630500D03*
D24*
X90394400Y-38630500D03*
X101544400Y-38630500D03*
D23*
X90394400Y-34630500D03*
D16*
X93869800Y-46736000D03*
X94889800Y-46736000D03*
D10*
X99609600Y-41935400D03*
X98649600Y-41935400D03*
D16*
X100778600Y-40868600D03*
X101798600Y-40868600D03*
D12*
X90140600Y-43688000D03*
X91100600Y-43688000D03*
D13*
X96843600Y-45895800D03*
X96843600Y-46915800D03*
D16*
X96765400Y-43230800D03*
X97785400Y-43230800D03*
D14*
X88360000Y-34290000D03*
D15*
X88360000Y-36830000D03*
X88360000Y-39370000D03*
X88360000Y-41910000D03*
X88360000Y-44450000D03*
X88360000Y-46990000D03*
X88360000Y-49530000D03*
X88360000Y-52070000D03*
X88360000Y-54610000D03*
X88360000Y-57150000D03*
X88360000Y-59690000D03*
X88360000Y-62230000D03*
X88360000Y-64770000D03*
D25*
X90442800Y-40970100D03*
X90442800Y-42545100D03*
D16*
X96740000Y-42240200D03*
X97760000Y-42240200D03*
X96765400Y-44119800D03*
X97785400Y-44119800D03*
D26*
X95664900Y-43549000D03*
X95664900Y-43049000D03*
X95664900Y-42549000D03*
X95664900Y-42049000D03*
D27*
X94977400Y-41361500D03*
X94477400Y-41361500D03*
X93977400Y-41361500D03*
X93477400Y-41361500D03*
D26*
X92789900Y-42049000D03*
X92789900Y-42549000D03*
X92789900Y-43049000D03*
X92789900Y-43549000D03*
D27*
X93477400Y-44236500D03*
X93977400Y-44236500D03*
X94477400Y-44236500D03*
X94977400Y-44236500D03*
D28*
X94227400Y-42799000D03*
D29*
X100526700Y-46380400D03*
X98951700Y-46380400D03*
D12*
X96795400Y-44983400D03*
X97755400Y-44983400D03*
D30*
X90442800Y-46431300D03*
X90442800Y-44856300D03*
D13*
X95853000Y-45972000D03*
X95853000Y-46992000D03*
D12*
X99339600Y-88334600D03*
X100299600Y-88334600D03*
D31*
X92879900Y-91011800D03*
X92879900Y-90061800D03*
X92879900Y-89111800D03*
X90604900Y-89111800D03*
X90604900Y-91011800D03*
D10*
X98343800Y-88512400D03*
X97383800Y-88512400D03*
D17*
X94104600Y-88184200D03*
X94104600Y-87164200D03*
D13*
X100302200Y-91228200D03*
X100302200Y-92248200D03*
D14*
X88338800Y-99790000D03*
D15*
X88338800Y-97250000D03*
X88338800Y-94710000D03*
X88338800Y-92170000D03*
X88338800Y-89630000D03*
X88338800Y-87090000D03*
X88338800Y-84550000D03*
X88338800Y-82010000D03*
X88338800Y-79470000D03*
X88338800Y-76930000D03*
X88338800Y-74390000D03*
X88338800Y-71850000D03*
X88338800Y-69310000D03*
D32*
X98069000Y-87344000D03*
X97049000Y-87344000D03*
D18*
X90358800Y-74211000D03*
X90358800Y-74861000D03*
X90358800Y-75511000D03*
X90358800Y-76161000D03*
X90358800Y-76811000D03*
X90358800Y-77461000D03*
X90358800Y-78111000D03*
X90358800Y-78761000D03*
X90358800Y-79411000D03*
X90358800Y-80061000D03*
X90358800Y-80711000D03*
X90358800Y-81361000D03*
X90358800Y-82011000D03*
X90358800Y-82661000D03*
X90358800Y-83311000D03*
X90358800Y-83961000D03*
X90358800Y-84611000D03*
D19*
X90758800Y-85811000D03*
X91408800Y-85811000D03*
X92058800Y-85811000D03*
X92708800Y-85811000D03*
X93358800Y-85811000D03*
X94008800Y-85811000D03*
X94658800Y-85811000D03*
X95308800Y-85811000D03*
X95958800Y-85811000D03*
X96608800Y-85811000D03*
X97258800Y-85811000D03*
X97908800Y-85811000D03*
X98558800Y-85811000D03*
X99208800Y-85811000D03*
X99858800Y-85811000D03*
X100508800Y-85811000D03*
X101158800Y-85811000D03*
D18*
X101558800Y-84611000D03*
X101558800Y-83961000D03*
X101558800Y-83311000D03*
X101558800Y-82661000D03*
X101558800Y-82011000D03*
X101558800Y-81361000D03*
X101558800Y-80711000D03*
X101558800Y-80061000D03*
X101558800Y-79411000D03*
X101558800Y-78761000D03*
X101558800Y-78111000D03*
X101558800Y-77461000D03*
X101558800Y-76811000D03*
X101558800Y-76161000D03*
X101558800Y-75511000D03*
X101558800Y-74861000D03*
X101558800Y-74211000D03*
D19*
X100508800Y-74311000D03*
X99858800Y-74311000D03*
X99208800Y-74311000D03*
X98558800Y-74311000D03*
X97908800Y-74311000D03*
D18*
X99858800Y-75511000D03*
X99858800Y-76161000D03*
X99858800Y-76811000D03*
X99858800Y-77461000D03*
D20*
X94408800Y-80561000D03*
X94408800Y-77711000D03*
X97208800Y-80561000D03*
X97208800Y-77711000D03*
D32*
X95173400Y-90849200D03*
X94153400Y-90849200D03*
D13*
X90167600Y-87037200D03*
X90167600Y-88057200D03*
D12*
X99339600Y-87267800D03*
X100299600Y-87267800D03*
D10*
X95168800Y-92932000D03*
X94208800Y-92932000D03*
D32*
X100202600Y-93617800D03*
X99182600Y-93617800D03*
D10*
X91130200Y-92144600D03*
X90170200Y-92144600D03*
D12*
X92329200Y-92144600D03*
X93289200Y-92144600D03*
D14*
X103578800Y-99790000D03*
D15*
X103578800Y-97250000D03*
X103578800Y-94710000D03*
X103578800Y-92170000D03*
X103578800Y-89630000D03*
X103578800Y-87090000D03*
X103578800Y-84550000D03*
X103578800Y-82010000D03*
X103578800Y-79470000D03*
X103578800Y-76930000D03*
X103578800Y-74390000D03*
X103578800Y-71850000D03*
X103578800Y-69310000D03*
D32*
X91160200Y-93211400D03*
X90140200Y-93211400D03*
D17*
X95095200Y-88184200D03*
X95095200Y-87164200D03*
D10*
X101798200Y-90392000D03*
X100838200Y-90392000D03*
D25*
X101496000Y-87648700D03*
X101496000Y-89223700D03*
D33*
X96273900Y-90531000D03*
X96273900Y-91031000D03*
X96273900Y-91531000D03*
X96273900Y-92031000D03*
D34*
X96961400Y-92718500D03*
X97461400Y-92718500D03*
X97961400Y-92718500D03*
X98461400Y-92718500D03*
D33*
X99148900Y-92031000D03*
X99148900Y-91531000D03*
X99148900Y-91031000D03*
X99148900Y-90531000D03*
D34*
X98461400Y-89843500D03*
X97961400Y-89843500D03*
X97461400Y-89843500D03*
X96961400Y-89843500D03*
D28*
X97711400Y-91281000D03*
D21*
X92769400Y-94945500D03*
X93569400Y-94945500D03*
D22*
X94719400Y-94945500D03*
X95719400Y-94945500D03*
X96219400Y-94945500D03*
X97219400Y-94945500D03*
D21*
X98369400Y-94945500D03*
X99169400Y-94945500D03*
X99169400Y-94945500D03*
X98369400Y-94945500D03*
D22*
X97719400Y-94945500D03*
X96719400Y-94945500D03*
X95219400Y-94945500D03*
X94219400Y-94945500D03*
D21*
X93569400Y-94945500D03*
X92769400Y-94945500D03*
D23*
X90394400Y-99449500D03*
D24*
X101544400Y-95449500D03*
X90394400Y-95449500D03*
D23*
X101544400Y-99449500D03*
D32*
X95198800Y-91839800D03*
X94178800Y-91839800D03*
X95173400Y-89960200D03*
X94153400Y-89960200D03*
D35*
X91412100Y-87699600D03*
X92987100Y-87699600D03*
D17*
X96085800Y-88108000D03*
X96085800Y-87088000D03*
D10*
X95143400Y-89096600D03*
X94183400Y-89096600D03*
D30*
X101496000Y-93109900D03*
X101496000Y-91534900D03*
D36*
X104854000Y-74390000D03*
X106886000Y-74390000D03*
X104854000Y-73120000D03*
X106886000Y-71850000D03*
X104854000Y-71850000D03*
X106886000Y-73120000D03*
X104854000Y-97250000D03*
X106886000Y-97250000D03*
X104854000Y-95980000D03*
X106886000Y-94710000D03*
X104854000Y-94710000D03*
X106886000Y-95980000D03*
X95969400Y-66024000D03*
X94699400Y-68056000D03*
X94699400Y-66024000D03*
X95969400Y-68056000D03*
X97239400Y-66024000D03*
X97239400Y-68056000D03*
X104854000Y-62230000D03*
X106886000Y-62230000D03*
X104854000Y-60960000D03*
X106886000Y-59690000D03*
X104854000Y-59690000D03*
X106886000Y-60960000D03*
X104854000Y-39370000D03*
X106886000Y-39370000D03*
X104854000Y-38100000D03*
X106886000Y-36830000D03*
X104854000Y-36830000D03*
X106886000Y-38100000D03*
X85074000Y-97250000D03*
X87106000Y-97250000D03*
X85074000Y-95980000D03*
X87106000Y-94710000D03*
X85074000Y-94710000D03*
X87106000Y-95980000D03*
X85074000Y-74390000D03*
X87106000Y-74390000D03*
X85074000Y-73120000D03*
X87106000Y-71850000D03*
X85074000Y-71850000D03*
X87106000Y-73120000D03*
D12*
X79559600Y-88334600D03*
X80519600Y-88334600D03*
D31*
X73099900Y-91011800D03*
X73099900Y-90061800D03*
X73099900Y-89111800D03*
X70824900Y-89111800D03*
X70824900Y-91011800D03*
D10*
X78563800Y-88512400D03*
X77603800Y-88512400D03*
X75388800Y-92932000D03*
X74428800Y-92932000D03*
D17*
X74324600Y-88184200D03*
X74324600Y-87164200D03*
D14*
X68558800Y-99790000D03*
D15*
X68558800Y-97250000D03*
X68558800Y-94710000D03*
X68558800Y-92170000D03*
X68558800Y-89630000D03*
X68558800Y-87090000D03*
X68558800Y-84550000D03*
X68558800Y-82010000D03*
X68558800Y-79470000D03*
X68558800Y-76930000D03*
X68558800Y-74390000D03*
X68558800Y-71850000D03*
X68558800Y-69310000D03*
D32*
X80422600Y-93617800D03*
X79402600Y-93617800D03*
D12*
X79559600Y-87267800D03*
X80519600Y-87267800D03*
D13*
X80522200Y-91228200D03*
X80522200Y-92248200D03*
D18*
X70578800Y-74211000D03*
X70578800Y-74861000D03*
X70578800Y-75511000D03*
X70578800Y-76161000D03*
X70578800Y-76811000D03*
X70578800Y-77461000D03*
X70578800Y-78111000D03*
X70578800Y-78761000D03*
X70578800Y-79411000D03*
X70578800Y-80061000D03*
X70578800Y-80711000D03*
X70578800Y-81361000D03*
X70578800Y-82011000D03*
X70578800Y-82661000D03*
X70578800Y-83311000D03*
X70578800Y-83961000D03*
X70578800Y-84611000D03*
D19*
X70978800Y-85811000D03*
X71628800Y-85811000D03*
X72278800Y-85811000D03*
X72928800Y-85811000D03*
X73578800Y-85811000D03*
X74228800Y-85811000D03*
X74878800Y-85811000D03*
X75528800Y-85811000D03*
X76178800Y-85811000D03*
X76828800Y-85811000D03*
X77478800Y-85811000D03*
X78128800Y-85811000D03*
X78778800Y-85811000D03*
X79428800Y-85811000D03*
X80078800Y-85811000D03*
X80728800Y-85811000D03*
X81378800Y-85811000D03*
D18*
X81778800Y-84611000D03*
X81778800Y-83961000D03*
X81778800Y-83311000D03*
X81778800Y-82661000D03*
X81778800Y-82011000D03*
X81778800Y-81361000D03*
X81778800Y-80711000D03*
X81778800Y-80061000D03*
X81778800Y-79411000D03*
X81778800Y-78761000D03*
X81778800Y-78111000D03*
X81778800Y-77461000D03*
X81778800Y-76811000D03*
X81778800Y-76161000D03*
X81778800Y-75511000D03*
X81778800Y-74861000D03*
X81778800Y-74211000D03*
D19*
X80728800Y-74311000D03*
X80078800Y-74311000D03*
X79428800Y-74311000D03*
X78778800Y-74311000D03*
X78128800Y-74311000D03*
D18*
X80078800Y-75511000D03*
X80078800Y-76161000D03*
X80078800Y-76811000D03*
X80078800Y-77461000D03*
D20*
X74628800Y-80561000D03*
X74628800Y-77711000D03*
X77428800Y-80561000D03*
X77428800Y-77711000D03*
D10*
X71350200Y-92144600D03*
X70390200Y-92144600D03*
D13*
X70387600Y-87037200D03*
X70387600Y-88057200D03*
D21*
X72989400Y-94945500D03*
X73789400Y-94945500D03*
D22*
X74939400Y-94945500D03*
X75939400Y-94945500D03*
X76439400Y-94945500D03*
X77439400Y-94945500D03*
D21*
X78589400Y-94945500D03*
X79389400Y-94945500D03*
X79389400Y-94945500D03*
X78589400Y-94945500D03*
D22*
X77939400Y-94945500D03*
X76939400Y-94945500D03*
X75439400Y-94945500D03*
X74439400Y-94945500D03*
D21*
X73789400Y-94945500D03*
X72989400Y-94945500D03*
D23*
X70614400Y-99449500D03*
D24*
X81764400Y-95449500D03*
X70614400Y-95449500D03*
D23*
X81764400Y-99449500D03*
D32*
X78289000Y-87344000D03*
X77269000Y-87344000D03*
D12*
X72549200Y-92144600D03*
X73509200Y-92144600D03*
D32*
X71380200Y-93211400D03*
X70360200Y-93211400D03*
D10*
X82018200Y-90392000D03*
X81058200Y-90392000D03*
D17*
X75315200Y-88184200D03*
X75315200Y-87164200D03*
D32*
X75393400Y-90849200D03*
X74373400Y-90849200D03*
D14*
X83798800Y-99790000D03*
D15*
X83798800Y-97250000D03*
X83798800Y-94710000D03*
X83798800Y-92170000D03*
X83798800Y-89630000D03*
X83798800Y-87090000D03*
X83798800Y-84550000D03*
X83798800Y-82010000D03*
X83798800Y-79470000D03*
X83798800Y-76930000D03*
X83798800Y-74390000D03*
X83798800Y-71850000D03*
X83798800Y-69310000D03*
D30*
X81716000Y-93109900D03*
X81716000Y-91534900D03*
D32*
X75418800Y-91839800D03*
X74398800Y-91839800D03*
X75393400Y-89960200D03*
X74373400Y-89960200D03*
D33*
X76493900Y-90531000D03*
X76493900Y-91031000D03*
X76493900Y-91531000D03*
X76493900Y-92031000D03*
D34*
X77181400Y-92718500D03*
X77681400Y-92718500D03*
X78181400Y-92718500D03*
X78681400Y-92718500D03*
D33*
X79368900Y-92031000D03*
X79368900Y-91531000D03*
X79368900Y-91031000D03*
X79368900Y-90531000D03*
D34*
X78681400Y-89843500D03*
X78181400Y-89843500D03*
X77681400Y-89843500D03*
X77181400Y-89843500D03*
D28*
X77931400Y-91281000D03*
D35*
X71632100Y-87699600D03*
X73207100Y-87699600D03*
D10*
X75363400Y-89096600D03*
X74403400Y-89096600D03*
D25*
X81716000Y-87648700D03*
X81716000Y-89223700D03*
D17*
X76305800Y-88108000D03*
X76305800Y-87088000D03*
D36*
X76189400Y-66024000D03*
X74919400Y-68056000D03*
X74919400Y-66024000D03*
X76189400Y-68056000D03*
X77459400Y-66024000D03*
X77459400Y-68056000D03*
X85074000Y-62230000D03*
X87106000Y-62230000D03*
X85074000Y-60960000D03*
X87106000Y-59690000D03*
X85074000Y-59690000D03*
X87106000Y-60960000D03*
X85074000Y-39370000D03*
X87106000Y-39370000D03*
X85074000Y-38100000D03*
X87106000Y-36830000D03*
X85074000Y-36830000D03*
X87106000Y-38100000D03*
D12*
X77015400Y-44983400D03*
X77975400Y-44983400D03*
D16*
X76960000Y-42240200D03*
X77980000Y-42240200D03*
D29*
X80746700Y-46380400D03*
X79171700Y-46380400D03*
D26*
X75884900Y-43549000D03*
X75884900Y-43049000D03*
X75884900Y-42549000D03*
X75884900Y-42049000D03*
D27*
X75197400Y-41361500D03*
X74697400Y-41361500D03*
X74197400Y-41361500D03*
X73697400Y-41361500D03*
D26*
X73009900Y-42049000D03*
X73009900Y-42549000D03*
X73009900Y-43049000D03*
X73009900Y-43549000D03*
D27*
X73697400Y-44236500D03*
X74197400Y-44236500D03*
X74697400Y-44236500D03*
X75197400Y-44236500D03*
D28*
X74447400Y-42799000D03*
D30*
X70662800Y-46431300D03*
X70662800Y-44856300D03*
D16*
X76985400Y-44119800D03*
X78005400Y-44119800D03*
D13*
X76073000Y-45972000D03*
X76073000Y-46992000D03*
D25*
X70662800Y-40970100D03*
X70662800Y-42545100D03*
D11*
X79278900Y-43068200D03*
X79278900Y-44018200D03*
X79278900Y-44968200D03*
X81553900Y-44968200D03*
X81553900Y-43068200D03*
D10*
X72819200Y-45745400D03*
X71859200Y-45745400D03*
D12*
X73815000Y-45567600D03*
X74775000Y-45567600D03*
D16*
X80998600Y-40868600D03*
X82018600Y-40868600D03*
X74089800Y-46736000D03*
X75109800Y-46736000D03*
D17*
X71856600Y-42851800D03*
X71856600Y-41831800D03*
D12*
X76990000Y-41148000D03*
X77950000Y-41148000D03*
D21*
X79389400Y-39134500D03*
X78589400Y-39134500D03*
D22*
X77439400Y-39134500D03*
X76439400Y-39134500D03*
X75939400Y-39134500D03*
X74939400Y-39134500D03*
D21*
X73789400Y-39134500D03*
X72989400Y-39134500D03*
X72989400Y-39134500D03*
X73789400Y-39134500D03*
D22*
X74439400Y-39134500D03*
X75439400Y-39134500D03*
X76939400Y-39134500D03*
X77939400Y-39134500D03*
D21*
X78589400Y-39134500D03*
X79389400Y-39134500D03*
D23*
X81764400Y-34630500D03*
D24*
X70614400Y-38630500D03*
X81764400Y-38630500D03*
D23*
X70614400Y-34630500D03*
D10*
X79829600Y-41935400D03*
X78869600Y-41935400D03*
X72819200Y-46812200D03*
X71859200Y-46812200D03*
D16*
X71956200Y-40462200D03*
X72976200Y-40462200D03*
D17*
X81991200Y-47042800D03*
X81991200Y-46022800D03*
D13*
X77063600Y-45895800D03*
X77063600Y-46915800D03*
D12*
X81028600Y-41935400D03*
X81988600Y-41935400D03*
D18*
X81800000Y-59869000D03*
X81800000Y-59219000D03*
X81800000Y-58569000D03*
X81800000Y-57919000D03*
X81800000Y-57269000D03*
X81800000Y-56619000D03*
X81800000Y-55969000D03*
X81800000Y-55319000D03*
X81800000Y-54669000D03*
X81800000Y-54019000D03*
X81800000Y-53369000D03*
X81800000Y-52719000D03*
X81800000Y-52069000D03*
X81800000Y-51419000D03*
X81800000Y-50769000D03*
X81800000Y-50119000D03*
X81800000Y-49469000D03*
D19*
X81400000Y-48269000D03*
X80750000Y-48269000D03*
X80100000Y-48269000D03*
X79450000Y-48269000D03*
X78800000Y-48269000D03*
X78150000Y-48269000D03*
X77500000Y-48269000D03*
X76850000Y-48269000D03*
X76200000Y-48269000D03*
X75550000Y-48269000D03*
X74900000Y-48269000D03*
X74250000Y-48269000D03*
X73600000Y-48269000D03*
X72950000Y-48269000D03*
X72300000Y-48269000D03*
X71650000Y-48269000D03*
X71000000Y-48269000D03*
D18*
X70600000Y-49469000D03*
X70600000Y-50119000D03*
X70600000Y-50769000D03*
X70600000Y-51419000D03*
X70600000Y-52069000D03*
X70600000Y-52719000D03*
X70600000Y-53369000D03*
X70600000Y-54019000D03*
X70600000Y-54669000D03*
X70600000Y-55319000D03*
X70600000Y-55969000D03*
X70600000Y-56619000D03*
X70600000Y-57269000D03*
X70600000Y-57919000D03*
X70600000Y-58569000D03*
X70600000Y-59219000D03*
X70600000Y-59869000D03*
D19*
X71650000Y-59769000D03*
X72300000Y-59769000D03*
X72950000Y-59769000D03*
X73600000Y-59769000D03*
X74250000Y-59769000D03*
D18*
X72300000Y-58569000D03*
X72300000Y-57919000D03*
X72300000Y-57269000D03*
X72300000Y-56619000D03*
D20*
X77750000Y-53519000D03*
X77750000Y-56369000D03*
X74950000Y-53519000D03*
X74950000Y-56369000D03*
D14*
X83820000Y-34290000D03*
D15*
X83820000Y-36830000D03*
X83820000Y-39370000D03*
X83820000Y-41910000D03*
X83820000Y-44450000D03*
X83820000Y-46990000D03*
X83820000Y-49530000D03*
X83820000Y-52070000D03*
X83820000Y-54610000D03*
X83820000Y-57150000D03*
X83820000Y-59690000D03*
X83820000Y-62230000D03*
X83820000Y-64770000D03*
D12*
X70360600Y-43688000D03*
X71320600Y-43688000D03*
D16*
X76985400Y-43230800D03*
X78005400Y-43230800D03*
D13*
X78054200Y-45895800D03*
X78054200Y-46915800D03*
D14*
X68580000Y-34290000D03*
D15*
X68580000Y-36830000D03*
X68580000Y-39370000D03*
X68580000Y-41910000D03*
X68580000Y-44450000D03*
X68580000Y-46990000D03*
X68580000Y-49530000D03*
X68580000Y-52070000D03*
X68580000Y-54610000D03*
X68580000Y-57150000D03*
X68580000Y-59690000D03*
X68580000Y-62230000D03*
X68580000Y-64770000D03*
M02*
