M48
; DRILL file {KiCad (6.0.1)} date Tue Mar 22 11:17:59 2022
; FORMAT={-:-/ absolute / metric / decimal}
; #@! TF.CreationDate,2022-03-22T11:17:59+07:00
; #@! TF.GenerationSoftware,Kicad,Pcbnew,(6.0.1)
; #@! TF.FileFunction,NonPlated,1,2,NPTH
FMAT,2
METRIC
; #@! TA.AperFunction,NonPlated,NPTH,ComponentDrill
T1C0.787
%
G90
G05
T1
X74.919Y-66.024
X74.919Y-68.056
X76.189Y-66.024
X76.189Y-68.056
X77.459Y-66.024
X77.459Y-68.056
X85.074Y-36.83
X85.074Y-38.1
X85.074Y-39.37
X85.074Y-59.69
X85.074Y-60.96
X85.074Y-62.23
X85.074Y-71.85
X85.074Y-73.12
X85.074Y-74.39
X85.074Y-94.71
X85.074Y-95.98
X85.074Y-97.25
X87.106Y-36.83
X87.106Y-38.1
X87.106Y-39.37
X87.106Y-59.69
X87.106Y-60.96
X87.106Y-62.23
X87.106Y-71.85
X87.106Y-73.12
X87.106Y-74.39
X87.106Y-94.71
X87.106Y-95.98
X87.106Y-97.25
X94.699Y-66.024
X94.699Y-68.056
X95.969Y-66.024
X95.969Y-68.056
X97.239Y-66.024
X97.239Y-68.056
X104.854Y-36.83
X104.854Y-38.1
X104.854Y-39.37
X104.854Y-59.69
X104.854Y-60.96
X104.854Y-62.23
X104.854Y-71.85
X104.854Y-73.12
X104.854Y-74.39
X104.854Y-94.71
X104.854Y-95.98
X104.854Y-97.25
X106.886Y-36.83
X106.886Y-38.1
X106.886Y-39.37
X106.886Y-59.69
X106.886Y-60.96
X106.886Y-62.23
X106.886Y-71.85
X106.886Y-73.12
X106.886Y-74.39
X106.886Y-94.71
X106.886Y-95.98
X106.886Y-97.25
X114.479Y-66.024
X114.479Y-68.056
X115.749Y-66.024
X115.749Y-68.056
X117.019Y-66.024
X117.019Y-68.056
X124.634Y-36.83
X124.634Y-38.1
X124.634Y-39.37
X124.634Y-59.69
X124.634Y-60.96
X124.634Y-62.23
X124.634Y-71.85
X124.634Y-73.12
X124.634Y-74.39
X124.634Y-94.71
X124.634Y-95.98
X124.634Y-97.25
X126.666Y-36.83
X126.666Y-38.1
X126.666Y-39.37
X126.666Y-59.69
X126.666Y-60.96
X126.666Y-62.23
X126.666Y-71.85
X126.666Y-73.12
X126.666Y-74.39
X126.666Y-94.71
X126.666Y-95.98
X126.666Y-97.25
X134.259Y-66.024
X134.259Y-68.056
X135.529Y-66.024
X135.529Y-68.056
X136.799Y-66.024
X136.799Y-68.056
X144.414Y-36.83
X144.414Y-38.1
X144.414Y-39.37
X144.414Y-59.69
X144.414Y-60.96
X144.414Y-62.23
X144.414Y-71.85
X144.414Y-73.12
X144.414Y-74.39
X144.414Y-94.71
X144.414Y-95.98
X144.414Y-97.25
X146.446Y-36.83
X146.446Y-38.1
X146.446Y-39.37
X146.446Y-59.69
X146.446Y-60.96
X146.446Y-62.23
X146.446Y-71.85
X146.446Y-73.12
X146.446Y-74.39
X146.446Y-94.71
X146.446Y-95.98
X146.446Y-97.25
X154.039Y-66.024
X154.039Y-68.056
X155.309Y-66.024
X155.309Y-68.056
X156.579Y-66.024
X156.579Y-68.056
T0
M30
