G04 #@! TF.GenerationSoftware,KiCad,Pcbnew,(6.0.1)*
G04 #@! TF.CreationDate,2022-03-22T11:17:59+07:00*
G04 #@! TF.ProjectId,Kimiro,4b696d69-726f-42e6-9b69-6361645f7063,rev?*
G04 #@! TF.SameCoordinates,Original*
G04 #@! TF.FileFunction,Profile,NP*
%FSLAX46Y46*%
G04 Gerber Fmt 4.6, Leading zero omitted, Abs format (unit mm)*
G04 Created by KiCad (PCBNEW (6.0.1)) date 2022-03-22 11:17:59*
%MOMM*%
%LPD*%
G01*
G04 APERTURE LIST*
G04 #@! TA.AperFunction,Profile*
%ADD10C,0.100000*%
G04 #@! TD*
G04 #@! TA.AperFunction,Profile*
%ADD11C,0.120000*%
G04 #@! TD*
G04 APERTURE END LIST*
D10*
X150748000Y-33655000D02*
X150748000Y-37896800D01*
X151383000Y-38531800D02*
X159257000Y-38531800D01*
X150113000Y-33020000D02*
X147065000Y-33020000D01*
X147065000Y-66040000D02*
X152531400Y-66040000D01*
X164210000Y-33655000D02*
G75*
G03*
X163575000Y-33020000I-634999J1D01*
G01*
X150748000Y-37896800D02*
G75*
G03*
X151383000Y-38531800I634999J-1D01*
G01*
X147065000Y-33020000D02*
G75*
G03*
X146430000Y-33655000I-1J-634999D01*
G01*
X146430000Y-65405000D02*
G75*
G03*
X147065000Y-66040000I634999J-1D01*
G01*
X160527000Y-33020000D02*
G75*
G03*
X159892000Y-33655000I-1J-634999D01*
G01*
X160527000Y-33020000D02*
X163575000Y-33020000D01*
X159257000Y-38531800D02*
G75*
G03*
X159892000Y-37896800I1J634999D01*
G01*
X159892000Y-33655000D02*
X159892000Y-37896800D01*
X164210000Y-65405000D02*
X164210000Y-63738000D01*
X163575000Y-66040000D02*
G75*
G03*
X164210000Y-65405000I1J634999D01*
G01*
X150748000Y-33655000D02*
G75*
G03*
X150113000Y-33020000I-634999J1D01*
G01*
X146430000Y-40878000D02*
X146430000Y-58182000D01*
X146430000Y-65405000D02*
X146430000Y-63738000D01*
X163575000Y-66040000D02*
X158087400Y-66040000D01*
X146430000Y-33655000D02*
X146430000Y-35322000D01*
X164188800Y-68675000D02*
X164188800Y-98758000D01*
X164188800Y-100425000D02*
X164188800Y-98758000D01*
X150726800Y-100425000D02*
X150726800Y-96183200D01*
X159870800Y-100425000D02*
G75*
G03*
X160505800Y-101060000I634999J-1D01*
G01*
X146408800Y-98758000D02*
X146408800Y-100425000D01*
X159870800Y-100425000D02*
X159870800Y-96183200D01*
X163553800Y-68040000D02*
X158087400Y-68040000D01*
X151361800Y-95548200D02*
G75*
G03*
X150726800Y-96183200I-1J-634999D01*
G01*
X147043800Y-68040000D02*
G75*
G03*
X146408800Y-68675000I-1J-634999D01*
G01*
X164210000Y-63738000D02*
X164210000Y-33655000D01*
X147043800Y-68040000D02*
X152531400Y-68040000D01*
X150091800Y-101060000D02*
G75*
G03*
X150726800Y-100425000I1J634999D01*
G01*
X159235800Y-95548200D02*
X151361800Y-95548200D01*
X160505800Y-101060000D02*
X163553800Y-101060000D01*
X146408800Y-100425000D02*
G75*
G03*
X147043800Y-101060000I634999J-1D01*
G01*
X159870800Y-96183200D02*
G75*
G03*
X159235800Y-95548200I-634999J1D01*
G01*
X163553800Y-101060000D02*
G75*
G03*
X164188800Y-100425000I1J634999D01*
G01*
X164188800Y-68675000D02*
G75*
G03*
X163553800Y-68040000I-634999J1D01*
G01*
X146408800Y-68675000D02*
X146408800Y-70342000D01*
X146408800Y-93202000D02*
X146408800Y-75898000D01*
X150091800Y-101060000D02*
X147043800Y-101060000D01*
X130968000Y-33655000D02*
X130968000Y-37896800D01*
X131603000Y-38531800D02*
X139477000Y-38531800D01*
X130333000Y-33020000D02*
X127285000Y-33020000D01*
X127285000Y-66040000D02*
X132751400Y-66040000D01*
X144430000Y-33655000D02*
G75*
G03*
X143795000Y-33020000I-634999J1D01*
G01*
X130968000Y-37896800D02*
G75*
G03*
X131603000Y-38531800I634999J-1D01*
G01*
X127285000Y-33020000D02*
G75*
G03*
X126650000Y-33655000I-1J-634999D01*
G01*
X126650000Y-65405000D02*
G75*
G03*
X127285000Y-66040000I634999J-1D01*
G01*
X140747000Y-33020000D02*
G75*
G03*
X140112000Y-33655000I-1J-634999D01*
G01*
X140747000Y-33020000D02*
X143795000Y-33020000D01*
X139477000Y-38531800D02*
G75*
G03*
X140112000Y-37896800I1J634999D01*
G01*
X140112000Y-33655000D02*
X140112000Y-37896800D01*
X144430000Y-65405000D02*
X144430000Y-63738000D01*
X143795000Y-66040000D02*
G75*
G03*
X144430000Y-65405000I1J634999D01*
G01*
X130968000Y-33655000D02*
G75*
G03*
X130333000Y-33020000I-634999J1D01*
G01*
X126650000Y-40878000D02*
X126650000Y-58182000D01*
X126650000Y-65405000D02*
X126650000Y-63738000D01*
X143795000Y-66040000D02*
X138307400Y-66040000D01*
X126650000Y-33655000D02*
X126650000Y-35322000D01*
X144430000Y-93202000D02*
X144430000Y-75898000D01*
X144408800Y-68675000D02*
X144408800Y-70342000D01*
X144408800Y-100425000D02*
X144408800Y-98758000D01*
X130946800Y-100425000D02*
X130946800Y-96183200D01*
X140090800Y-100425000D02*
G75*
G03*
X140725800Y-101060000I634999J-1D01*
G01*
X126628800Y-98758000D02*
X126628800Y-100425000D01*
X140090800Y-100425000D02*
X140090800Y-96183200D01*
X143773800Y-68040000D02*
X138307400Y-68040000D01*
X131581800Y-95548200D02*
G75*
G03*
X130946800Y-96183200I-1J-634999D01*
G01*
X127263800Y-68040000D02*
G75*
G03*
X126628800Y-68675000I-1J-634999D01*
G01*
X144430000Y-40878000D02*
X144430000Y-58182000D01*
X144430000Y-35322000D02*
X144430000Y-33655000D01*
X127263800Y-68040000D02*
X132751400Y-68040000D01*
X130311800Y-101060000D02*
G75*
G03*
X130946800Y-100425000I1J634999D01*
G01*
X139455800Y-95548200D02*
X131581800Y-95548200D01*
X140725800Y-101060000D02*
X143773800Y-101060000D01*
X126628800Y-100425000D02*
G75*
G03*
X127263800Y-101060000I634999J-1D01*
G01*
X140090800Y-96183200D02*
G75*
G03*
X139455800Y-95548200I-634999J1D01*
G01*
X143773800Y-101060000D02*
G75*
G03*
X144408800Y-100425000I1J634999D01*
G01*
X144408800Y-68675000D02*
G75*
G03*
X143773800Y-68040000I-634999J1D01*
G01*
X126628800Y-68675000D02*
X126628800Y-70342000D01*
X126628800Y-93202000D02*
X126628800Y-75898000D01*
X130311800Y-101060000D02*
X127263800Y-101060000D01*
X111188000Y-33655000D02*
X111188000Y-37896800D01*
X111823000Y-38531800D02*
X119697000Y-38531800D01*
X110553000Y-33020000D02*
X107505000Y-33020000D01*
X107505000Y-66040000D02*
X112971400Y-66040000D01*
X124650000Y-33655000D02*
G75*
G03*
X124015000Y-33020000I-634999J1D01*
G01*
X111188000Y-37896800D02*
G75*
G03*
X111823000Y-38531800I634999J-1D01*
G01*
X107505000Y-33020000D02*
G75*
G03*
X106870000Y-33655000I-1J-634999D01*
G01*
X106870000Y-65405000D02*
G75*
G03*
X107505000Y-66040000I634999J-1D01*
G01*
X120967000Y-33020000D02*
G75*
G03*
X120332000Y-33655000I-1J-634999D01*
G01*
X120967000Y-33020000D02*
X124015000Y-33020000D01*
X119697000Y-38531800D02*
G75*
G03*
X120332000Y-37896800I1J634999D01*
G01*
X120332000Y-33655000D02*
X120332000Y-37896800D01*
X124650000Y-65405000D02*
X124650000Y-63738000D01*
X124015000Y-66040000D02*
G75*
G03*
X124650000Y-65405000I1J634999D01*
G01*
X111188000Y-33655000D02*
G75*
G03*
X110553000Y-33020000I-634999J1D01*
G01*
X106870000Y-40878000D02*
X106870000Y-58182000D01*
X106870000Y-65405000D02*
X106870000Y-63738000D01*
X124015000Y-66040000D02*
X118527400Y-66040000D01*
X106870000Y-33655000D02*
X106870000Y-35322000D01*
X124650000Y-93202000D02*
X124650000Y-75898000D01*
X124628800Y-68675000D02*
X124628800Y-70342000D01*
X124628800Y-100425000D02*
X124628800Y-98758000D01*
X111166800Y-100425000D02*
X111166800Y-96183200D01*
X120310800Y-100425000D02*
G75*
G03*
X120945800Y-101060000I634999J-1D01*
G01*
X106848800Y-98758000D02*
X106848800Y-100425000D01*
X120310800Y-100425000D02*
X120310800Y-96183200D01*
X123993800Y-68040000D02*
X118527400Y-68040000D01*
X111801800Y-95548200D02*
G75*
G03*
X111166800Y-96183200I-1J-634999D01*
G01*
X107483800Y-68040000D02*
G75*
G03*
X106848800Y-68675000I-1J-634999D01*
G01*
X124650000Y-40878000D02*
X124650000Y-58182000D01*
X124650000Y-35322000D02*
X124650000Y-33655000D01*
X107483800Y-68040000D02*
X112971400Y-68040000D01*
X110531800Y-101060000D02*
G75*
G03*
X111166800Y-100425000I1J634999D01*
G01*
X119675800Y-95548200D02*
X111801800Y-95548200D01*
X120945800Y-101060000D02*
X123993800Y-101060000D01*
X106848800Y-100425000D02*
G75*
G03*
X107483800Y-101060000I634999J-1D01*
G01*
X120310800Y-96183200D02*
G75*
G03*
X119675800Y-95548200I-634999J1D01*
G01*
X123993800Y-101060000D02*
G75*
G03*
X124628800Y-100425000I1J634999D01*
G01*
X124628800Y-68675000D02*
G75*
G03*
X123993800Y-68040000I-634999J1D01*
G01*
X106848800Y-68675000D02*
X106848800Y-70342000D01*
X106848800Y-93202000D02*
X106848800Y-75898000D01*
X110531800Y-101060000D02*
X107483800Y-101060000D01*
X91408000Y-33655000D02*
X91408000Y-37896800D01*
X92043000Y-38531800D02*
X99917000Y-38531800D01*
X90773000Y-33020000D02*
X87725000Y-33020000D01*
X87725000Y-66040000D02*
X93191400Y-66040000D01*
X104870000Y-33655000D02*
G75*
G03*
X104235000Y-33020000I-634999J1D01*
G01*
X91408000Y-37896800D02*
G75*
G03*
X92043000Y-38531800I634999J-1D01*
G01*
X87725000Y-33020000D02*
G75*
G03*
X87090000Y-33655000I-1J-634999D01*
G01*
X87090000Y-65405000D02*
G75*
G03*
X87725000Y-66040000I634999J-1D01*
G01*
X101187000Y-33020000D02*
G75*
G03*
X100552000Y-33655000I-1J-634999D01*
G01*
X101187000Y-33020000D02*
X104235000Y-33020000D01*
X99917000Y-38531800D02*
G75*
G03*
X100552000Y-37896800I1J634999D01*
G01*
X100552000Y-33655000D02*
X100552000Y-37896800D01*
X104870000Y-65405000D02*
X104870000Y-63738000D01*
X104235000Y-66040000D02*
G75*
G03*
X104870000Y-65405000I1J634999D01*
G01*
X91408000Y-33655000D02*
G75*
G03*
X90773000Y-33020000I-634999J1D01*
G01*
X87090000Y-40878000D02*
X87090000Y-58182000D01*
X87090000Y-65405000D02*
X87090000Y-63738000D01*
X104235000Y-66040000D02*
X98747400Y-66040000D01*
X87090000Y-33655000D02*
X87090000Y-35322000D01*
X104870000Y-93202000D02*
X104870000Y-75898000D01*
X104848800Y-68675000D02*
X104848800Y-70342000D01*
X104848800Y-100425000D02*
X104848800Y-98758000D01*
X91386800Y-100425000D02*
X91386800Y-96183200D01*
X100530800Y-100425000D02*
G75*
G03*
X101165800Y-101060000I634999J-1D01*
G01*
X87068800Y-98758000D02*
X87068800Y-100425000D01*
X100530800Y-100425000D02*
X100530800Y-96183200D01*
X104213800Y-68040000D02*
X98747400Y-68040000D01*
X92021800Y-95548200D02*
G75*
G03*
X91386800Y-96183200I-1J-634999D01*
G01*
X87703800Y-68040000D02*
G75*
G03*
X87068800Y-68675000I-1J-634999D01*
G01*
X104870000Y-40878000D02*
X104870000Y-58182000D01*
X104870000Y-35322000D02*
X104870000Y-33655000D01*
X87703800Y-68040000D02*
X93191400Y-68040000D01*
X90751800Y-101060000D02*
G75*
G03*
X91386800Y-100425000I1J634999D01*
G01*
X99895800Y-95548200D02*
X92021800Y-95548200D01*
X101165800Y-101060000D02*
X104213800Y-101060000D01*
X87068800Y-100425000D02*
G75*
G03*
X87703800Y-101060000I634999J-1D01*
G01*
X100530800Y-96183200D02*
G75*
G03*
X99895800Y-95548200I-634999J1D01*
G01*
X104213800Y-101060000D02*
G75*
G03*
X104848800Y-100425000I1J634999D01*
G01*
X104848800Y-68675000D02*
G75*
G03*
X104213800Y-68040000I-634999J1D01*
G01*
X87068800Y-68675000D02*
X87068800Y-70342000D01*
X87068800Y-93202000D02*
X87068800Y-75898000D01*
X90751800Y-101060000D02*
X87703800Y-101060000D01*
X67310000Y-33655000D02*
X67310000Y-63738000D01*
X67310000Y-65405000D02*
X67310000Y-63738000D01*
X85090000Y-93202000D02*
X85090000Y-75898000D01*
X85068800Y-100425000D02*
X85068800Y-98758000D01*
X85068800Y-68675000D02*
X85068800Y-70342000D01*
X80750800Y-100425000D02*
X80750800Y-96183200D01*
X80115800Y-95548200D02*
X72241800Y-95548200D01*
X81385800Y-101060000D02*
X84433800Y-101060000D01*
X84433800Y-68040000D02*
X78967400Y-68040000D01*
X67288800Y-100425000D02*
G75*
G03*
X67923800Y-101060000I634999J-1D01*
G01*
X80750800Y-96183200D02*
G75*
G03*
X80115800Y-95548200I-634999J1D01*
G01*
X84433800Y-101060000D02*
G75*
G03*
X85068800Y-100425000I1J634999D01*
G01*
X85068800Y-68675000D02*
G75*
G03*
X84433800Y-68040000I-634999J1D01*
G01*
X70971800Y-101060000D02*
G75*
G03*
X71606800Y-100425000I1J634999D01*
G01*
X70971800Y-101060000D02*
X67923800Y-101060000D01*
X72241800Y-95548200D02*
G75*
G03*
X71606800Y-96183200I-1J-634999D01*
G01*
X71606800Y-100425000D02*
X71606800Y-96183200D01*
X67288800Y-68675000D02*
X67288800Y-98758000D01*
X67923800Y-68040000D02*
G75*
G03*
X67288800Y-68675000I-1J-634999D01*
G01*
X80750800Y-100425000D02*
G75*
G03*
X81385800Y-101060000I634999J-1D01*
G01*
X67923800Y-68040000D02*
X73411400Y-68040000D01*
X67288800Y-98758000D02*
X67288800Y-100425000D01*
X85090000Y-35322000D02*
X85090000Y-33655000D01*
X85090000Y-40878000D02*
X85090000Y-58182000D01*
X84455000Y-66040000D02*
X78967400Y-66040000D01*
X71628000Y-33655000D02*
G75*
G03*
X70993000Y-33020000I-634999J1D01*
G01*
X84455000Y-66040000D02*
G75*
G03*
X85090000Y-65405000I1J634999D01*
G01*
X81407000Y-33020000D02*
X84455000Y-33020000D01*
X85090000Y-65405000D02*
X85090000Y-63738000D01*
X81407000Y-33020000D02*
G75*
G03*
X80772000Y-33655000I-1J-634999D01*
G01*
X80772000Y-33655000D02*
X80772000Y-37896800D01*
X80137000Y-38531800D02*
G75*
G03*
X80772000Y-37896800I1J634999D01*
G01*
X67945000Y-66040000D02*
X73411400Y-66040000D01*
X72263000Y-38531800D02*
X80137000Y-38531800D01*
X70993000Y-33020000D02*
X67945000Y-33020000D01*
X67945000Y-33020000D02*
G75*
G03*
X67310000Y-33655000I-1J-634999D01*
G01*
X71628000Y-37896800D02*
G75*
G03*
X72263000Y-38531800I634999J-1D01*
G01*
X71628000Y-33655000D02*
X71628000Y-37896800D01*
X85090000Y-33655000D02*
G75*
G03*
X84455000Y-33020000I-634999J1D01*
G01*
X67310000Y-65405000D02*
G75*
G03*
X67945000Y-66040000I634999J-1D01*
G01*
D11*
X158087400Y-66040000D02*
G75*
G03*
X158087400Y-68040000I0J-1000000D01*
G01*
X152531400Y-68040000D02*
G75*
G03*
X152531400Y-66040000I0J1000000D01*
G01*
X144430000Y-70342000D02*
G75*
G03*
X146430000Y-70342000I1000000J0D01*
G01*
X146430000Y-75898000D02*
G75*
G03*
X144430000Y-75898000I-1000000J0D01*
G01*
X144430000Y-93202000D02*
G75*
G03*
X146430000Y-93202000I1000000J0D01*
G01*
X146430000Y-98758000D02*
G75*
G03*
X144430000Y-98758000I-1000000J0D01*
G01*
X138307400Y-66040000D02*
G75*
G03*
X138307400Y-68040000I0J-1000000D01*
G01*
X132751400Y-68040000D02*
G75*
G03*
X132751400Y-66040000I0J1000000D01*
G01*
X144430000Y-58182000D02*
G75*
G03*
X146430000Y-58182000I1000000J0D01*
G01*
X146430000Y-63738000D02*
G75*
G03*
X144430000Y-63738000I-1000000J0D01*
G01*
X144430000Y-35322000D02*
G75*
G03*
X146430000Y-35322000I1000000J0D01*
G01*
X146430000Y-40878000D02*
G75*
G03*
X144430000Y-40878000I-1000000J0D01*
G01*
X124650000Y-70342000D02*
G75*
G03*
X126650000Y-70342000I1000000J0D01*
G01*
X126650000Y-75898000D02*
G75*
G03*
X124650000Y-75898000I-1000000J0D01*
G01*
X124650000Y-93202000D02*
G75*
G03*
X126650000Y-93202000I1000000J0D01*
G01*
X126650000Y-98758000D02*
G75*
G03*
X124650000Y-98758000I-1000000J0D01*
G01*
X118527400Y-66040000D02*
G75*
G03*
X118527400Y-68040000I0J-1000000D01*
G01*
X112971400Y-68040000D02*
G75*
G03*
X112971400Y-66040000I0J1000000D01*
G01*
X124650000Y-58182000D02*
G75*
G03*
X126650000Y-58182000I1000000J0D01*
G01*
X126650000Y-63738000D02*
G75*
G03*
X124650000Y-63738000I-1000000J0D01*
G01*
X124650000Y-35322000D02*
G75*
G03*
X126650000Y-35322000I1000000J0D01*
G01*
X126650000Y-40878000D02*
G75*
G03*
X124650000Y-40878000I-1000000J0D01*
G01*
X104870000Y-70342000D02*
G75*
G03*
X106870000Y-70342000I1000000J0D01*
G01*
X106870000Y-75898000D02*
G75*
G03*
X104870000Y-75898000I-1000000J0D01*
G01*
X104870000Y-93202000D02*
G75*
G03*
X106870000Y-93202000I1000000J0D01*
G01*
X106870000Y-98758000D02*
G75*
G03*
X104870000Y-98758000I-1000000J0D01*
G01*
X98747400Y-66040000D02*
G75*
G03*
X98747400Y-68040000I0J-1000000D01*
G01*
X93191400Y-68040000D02*
G75*
G03*
X93191400Y-66040000I0J1000000D01*
G01*
X104870000Y-58182000D02*
G75*
G03*
X106870000Y-58182000I1000000J0D01*
G01*
X106870000Y-63738000D02*
G75*
G03*
X104870000Y-63738000I-1000000J0D01*
G01*
X104870000Y-35322000D02*
G75*
G03*
X106870000Y-35322000I1000000J0D01*
G01*
X106870000Y-40878000D02*
G75*
G03*
X104870000Y-40878000I-1000000J0D01*
G01*
X85090000Y-93202000D02*
G75*
G03*
X87090000Y-93202000I1000000J0D01*
G01*
X87090000Y-98758000D02*
G75*
G03*
X85090000Y-98758000I-1000000J0D01*
G01*
X85090000Y-70342000D02*
G75*
G03*
X87090000Y-70342000I1000000J0D01*
G01*
X87090000Y-75898000D02*
G75*
G03*
X85090000Y-75898000I-1000000J0D01*
G01*
X78967400Y-66040000D02*
G75*
G03*
X78967400Y-68040000I0J-1000000D01*
G01*
X73411400Y-68040000D02*
G75*
G03*
X73411400Y-66040000I0J1000000D01*
G01*
X85090000Y-58182000D02*
G75*
G03*
X87090000Y-58182000I1000000J0D01*
G01*
X87090000Y-63738000D02*
G75*
G03*
X85090000Y-63738000I-1000000J0D01*
G01*
X85090000Y-35322000D02*
G75*
G03*
X87090000Y-35322000I1000000J0D01*
G01*
X87090000Y-40878000D02*
G75*
G03*
X85090000Y-40878000I-1000000J0D01*
G01*
M02*
