M48
; DRILL file {KiCad (6.0.1)} date Wed Mar 23 10:30:31 2022
; FORMAT={-:-/ absolute / metric / decimal}
; #@! TF.CreationDate,2022-03-23T10:30:31+07:00
; #@! TF.GenerationSoftware,Kicad,Pcbnew,(6.0.1)
; #@! TF.FileFunction,Plated,1,2,PTH
FMAT,2
METRIC
; #@! TA.AperFunction,Plated,PTH,ComponentDrill
T1C0.200
; #@! TA.AperFunction,Plated,PTH,ViaDrill
T2C0.250
; #@! TA.AperFunction,Plated,PTH,ViaDrill
T3C0.300
; #@! TA.AperFunction,Plated,PTH,ComponentDrill
T4C0.600
; #@! TA.AperFunction,Plated,PTH,ComponentDrill
T5C0.900
%
G90
G05
T1
X73.897Y-42.249
X73.897Y-43.349
X74.997Y-42.249
X74.997Y-43.349
X77.403Y-91.271
X77.403Y-92.371
X78.503Y-91.271
X78.503Y-92.371
X94.217Y-42.249
X94.217Y-43.349
X95.317Y-42.249
X95.317Y-43.349
X97.723Y-91.271
X97.723Y-92.371
X98.823Y-91.271
X98.823Y-92.371
X114.537Y-42.249
X114.537Y-43.349
X115.637Y-42.249
X115.637Y-43.349
X118.043Y-91.271
X118.043Y-92.371
X119.143Y-91.271
X119.143Y-92.371
X134.857Y-42.249
X134.857Y-43.349
X135.957Y-42.249
X135.957Y-43.349
X138.363Y-91.271
X138.363Y-92.371
X139.463Y-91.271
X139.463Y-92.371
X155.177Y-42.249
X155.177Y-43.349
X156.277Y-42.249
X156.277Y-43.349
X158.683Y-91.271
X158.683Y-92.371
X159.783Y-91.271
X159.783Y-92.371
T2
X69.834Y-84.008
X69.952Y-78.054
X71.347Y-51.361
X71.348Y-52.766
X71.349Y-52.067
X71.374Y-56.439
X71.408Y-58.494
X71.411Y-57.179
X71.476Y-49.2
X71.73Y-50.075
X71.73Y-50.775
X71.78Y-44.461
X71.806Y-90.475
X72.275Y-85.598
X72.28Y-42.799
X72.28Y-48.971
X72.966Y-85.49
X73.101Y-50.851
X73.508Y-92.126
X73.558Y-58.318
X73.697Y-89.856
X73.863Y-93.497
X74.808Y-40.468
X74.854Y-87.3
X74.908Y-49.095
X75.295Y-94.336
X75.385Y-90.071
X75.54Y-85.293
X75.616Y-49.047
X75.768Y-50.724
X75.933Y-40.136
X76.0Y-79.02
X76.175Y-49.784
X76.198Y-93.838
X76.202Y-40.782
X76.225Y-84.836
X76.4Y-55.6
X76.467Y-94.484
X76.632Y-83.896
X76.784Y-85.573
X76.86Y-49.327
X77.015Y-44.549
X77.105Y-40.284
X77.492Y-85.525
X77.546Y-47.32
X77.592Y-94.152
X78.537Y-41.123
X78.703Y-44.764
X78.842Y-76.302
X78.892Y-42.494
X79.299Y-83.769
X79.434Y-49.13
X80.12Y-85.649
X80.12Y-91.821
X80.125Y-49.022
X80.594Y-44.145
X80.62Y-90.159
X80.67Y-83.845
X80.67Y-84.545
X80.924Y-85.42
X80.989Y-77.441
X80.992Y-76.126
X81.026Y-78.181
X81.051Y-82.553
X81.052Y-81.854
X81.053Y-83.259
X82.448Y-56.566
X82.566Y-50.612
X90.154Y-84.008
X90.272Y-78.054
X91.667Y-51.361
X91.668Y-52.766
X91.669Y-52.067
X91.694Y-56.439
X91.728Y-58.494
X91.731Y-57.179
X91.796Y-49.2
X92.05Y-50.075
X92.05Y-50.775
X92.1Y-44.461
X92.126Y-90.475
X92.595Y-85.598
X92.6Y-42.799
X92.6Y-48.971
X93.286Y-85.49
X93.421Y-50.851
X93.828Y-92.126
X93.878Y-58.318
X94.017Y-89.856
X94.183Y-93.497
X95.128Y-40.468
X95.174Y-87.3
X95.228Y-49.095
X95.615Y-94.336
X95.705Y-90.071
X95.86Y-85.293
X95.936Y-49.047
X96.088Y-50.724
X96.253Y-40.136
X96.32Y-79.02
X96.495Y-49.784
X96.518Y-93.838
X96.522Y-40.782
X96.545Y-84.836
X96.72Y-55.6
X96.787Y-94.484
X96.952Y-83.896
X97.104Y-85.573
X97.18Y-49.327
X97.335Y-44.549
X97.425Y-40.284
X97.812Y-85.525
X97.866Y-47.32
X97.912Y-94.152
X98.857Y-41.123
X99.023Y-44.764
X99.162Y-76.302
X99.212Y-42.494
X99.619Y-83.769
X99.754Y-49.13
X100.44Y-85.649
X100.44Y-91.821
X100.445Y-49.022
X100.914Y-44.145
X100.94Y-90.159
X100.99Y-83.845
X100.99Y-84.545
X101.244Y-85.42
X101.309Y-77.441
X101.312Y-76.126
X101.346Y-78.181
X101.371Y-82.553
X101.372Y-81.854
X101.373Y-83.259
X102.768Y-56.566
X102.886Y-50.612
X110.474Y-84.008
X110.592Y-78.054
X111.987Y-51.361
X111.988Y-52.766
X111.989Y-52.067
X112.014Y-56.439
X112.048Y-58.494
X112.051Y-57.179
X112.116Y-49.2
X112.37Y-50.075
X112.37Y-50.775
X112.42Y-44.461
X112.446Y-90.475
X112.915Y-85.598
X112.92Y-42.799
X112.92Y-48.971
X113.606Y-85.49
X113.741Y-50.851
X114.148Y-92.126
X114.198Y-58.318
X114.337Y-89.856
X114.503Y-93.497
X115.448Y-40.468
X115.494Y-87.3
X115.548Y-49.095
X115.935Y-94.336
X116.025Y-90.071
X116.18Y-85.293
X116.256Y-49.047
X116.408Y-50.724
X116.573Y-40.136
X116.64Y-79.02
X116.815Y-49.784
X116.838Y-93.838
X116.842Y-40.782
X116.865Y-84.836
X117.04Y-55.6
X117.107Y-94.484
X117.272Y-83.896
X117.424Y-85.573
X117.5Y-49.327
X117.655Y-44.549
X117.745Y-40.284
X118.132Y-85.525
X118.186Y-47.32
X118.232Y-94.152
X119.177Y-41.123
X119.343Y-44.764
X119.482Y-76.302
X119.532Y-42.494
X119.939Y-83.769
X120.074Y-49.13
X120.76Y-85.649
X120.76Y-91.821
X120.765Y-49.022
X121.234Y-44.145
X121.26Y-90.159
X121.31Y-83.845
X121.31Y-84.545
X121.564Y-85.42
X121.629Y-77.441
X121.632Y-76.126
X121.666Y-78.181
X121.691Y-82.553
X121.692Y-81.854
X121.693Y-83.259
X123.088Y-56.566
X123.206Y-50.612
X130.794Y-84.008
X130.912Y-78.054
X132.307Y-51.361
X132.308Y-52.766
X132.309Y-52.067
X132.334Y-56.439
X132.368Y-58.494
X132.371Y-57.179
X132.436Y-49.2
X132.69Y-50.075
X132.69Y-50.775
X132.74Y-44.461
X132.766Y-90.475
X133.235Y-85.598
X133.24Y-42.799
X133.24Y-48.971
X133.926Y-85.49
X134.061Y-50.851
X134.468Y-92.126
X134.518Y-58.318
X134.657Y-89.856
X134.823Y-93.497
X135.768Y-40.468
X135.814Y-87.3
X135.868Y-49.095
X136.255Y-94.336
X136.345Y-90.071
X136.5Y-85.293
X136.576Y-49.047
X136.728Y-50.724
X136.893Y-40.136
X136.96Y-79.02
X137.135Y-49.784
X137.158Y-93.838
X137.162Y-40.782
X137.185Y-84.836
X137.36Y-55.6
X137.427Y-94.484
X137.592Y-83.896
X137.744Y-85.573
X137.82Y-49.327
X137.975Y-44.549
X138.065Y-40.284
X138.452Y-85.525
X138.506Y-47.32
X138.552Y-94.152
X139.497Y-41.123
X139.663Y-44.764
X139.802Y-76.302
X139.852Y-42.494
X140.259Y-83.769
X140.394Y-49.13
X141.08Y-85.649
X141.08Y-91.821
X141.085Y-49.022
X141.554Y-44.145
X141.58Y-90.159
X141.63Y-83.845
X141.63Y-84.545
X141.884Y-85.42
X141.949Y-77.441
X141.952Y-76.126
X141.986Y-78.181
X142.011Y-82.553
X142.012Y-81.854
X142.013Y-83.259
X143.408Y-56.566
X143.526Y-50.612
X151.114Y-84.008
X151.232Y-78.054
X152.627Y-51.361
X152.628Y-52.766
X152.629Y-52.067
X152.654Y-56.439
X152.688Y-58.494
X152.691Y-57.179
X152.756Y-49.2
X153.01Y-50.075
X153.01Y-50.775
X153.06Y-44.461
X153.086Y-90.475
X153.555Y-85.598
X153.56Y-42.799
X153.56Y-48.971
X154.246Y-85.49
X154.381Y-50.851
X154.788Y-92.126
X154.838Y-58.318
X154.977Y-89.856
X155.143Y-93.497
X156.088Y-40.468
X156.134Y-87.3
X156.188Y-49.095
X156.575Y-94.336
X156.665Y-90.071
X156.82Y-85.293
X156.896Y-49.047
X157.048Y-50.724
X157.213Y-40.136
X157.28Y-79.02
X157.455Y-49.784
X157.478Y-93.838
X157.482Y-40.782
X157.505Y-84.836
X157.68Y-55.6
X157.747Y-94.484
X157.912Y-83.896
X158.064Y-85.573
X158.14Y-49.327
X158.295Y-44.549
X158.385Y-40.284
X158.772Y-85.525
X158.826Y-47.32
X158.872Y-94.152
X159.817Y-41.123
X159.983Y-44.764
X160.122Y-76.302
X160.172Y-42.494
X160.579Y-83.769
X160.714Y-49.13
X161.4Y-85.649
X161.4Y-91.821
X161.405Y-49.022
X161.874Y-44.145
X161.9Y-90.159
X161.95Y-83.845
X161.95Y-84.545
X162.204Y-85.42
X162.269Y-77.441
X162.272Y-76.126
X162.306Y-78.181
X162.331Y-82.553
X162.332Y-81.854
X162.333Y-83.259
X163.728Y-56.566
X163.846Y-50.612
T3
X73.729Y-39.885
X73.812Y-94.793
X78.588Y-39.827
X78.671Y-94.735
X94.049Y-39.885
X94.132Y-94.793
X98.908Y-39.827
X98.991Y-94.735
X114.369Y-39.885
X114.452Y-94.793
X119.228Y-39.827
X119.311Y-94.735
X134.689Y-39.885
X134.772Y-94.793
X139.548Y-39.827
X139.631Y-94.735
X155.009Y-39.885
X155.092Y-94.793
X159.868Y-39.827
X159.951Y-94.735
T5
X68.58Y-34.29
X68.58Y-36.83
X68.58Y-39.37
X68.58Y-41.91
X68.58Y-44.45
X68.58Y-46.99
X68.58Y-49.53
X68.58Y-52.07
X68.58Y-54.61
X68.58Y-57.15
X68.58Y-59.69
X68.58Y-62.23
X68.58Y-64.77
X68.58Y-69.85
X68.58Y-72.39
X68.58Y-74.93
X68.58Y-77.47
X68.58Y-80.01
X68.58Y-82.55
X68.58Y-85.09
X68.58Y-87.63
X68.58Y-90.17
X68.58Y-92.71
X68.58Y-95.25
X68.58Y-97.79
X68.58Y-100.33
X83.82Y-34.29
X83.82Y-36.83
X83.82Y-39.37
X83.82Y-41.91
X83.82Y-44.45
X83.82Y-46.99
X83.82Y-49.53
X83.82Y-52.07
X83.82Y-54.61
X83.82Y-57.15
X83.82Y-59.69
X83.82Y-62.23
X83.82Y-64.77
X83.82Y-69.85
X83.82Y-72.39
X83.82Y-74.93
X83.82Y-77.47
X83.82Y-80.01
X83.82Y-82.55
X83.82Y-85.09
X83.82Y-87.63
X83.82Y-90.17
X83.82Y-92.71
X83.82Y-95.25
X83.82Y-97.79
X83.82Y-100.33
X88.9Y-34.29
X88.9Y-36.83
X88.9Y-39.37
X88.9Y-41.91
X88.9Y-44.45
X88.9Y-46.99
X88.9Y-49.53
X88.9Y-52.07
X88.9Y-54.61
X88.9Y-57.15
X88.9Y-59.69
X88.9Y-62.23
X88.9Y-64.77
X88.9Y-69.85
X88.9Y-72.39
X88.9Y-74.93
X88.9Y-77.47
X88.9Y-80.01
X88.9Y-82.55
X88.9Y-85.09
X88.9Y-87.63
X88.9Y-90.17
X88.9Y-92.71
X88.9Y-95.25
X88.9Y-97.79
X88.9Y-100.33
X104.14Y-34.29
X104.14Y-36.83
X104.14Y-39.37
X104.14Y-41.91
X104.14Y-44.45
X104.14Y-46.99
X104.14Y-49.53
X104.14Y-52.07
X104.14Y-54.61
X104.14Y-57.15
X104.14Y-59.69
X104.14Y-62.23
X104.14Y-64.77
X104.14Y-69.85
X104.14Y-72.39
X104.14Y-74.93
X104.14Y-77.47
X104.14Y-80.01
X104.14Y-82.55
X104.14Y-85.09
X104.14Y-87.63
X104.14Y-90.17
X104.14Y-92.71
X104.14Y-95.25
X104.14Y-97.79
X104.14Y-100.33
X109.22Y-34.29
X109.22Y-36.83
X109.22Y-39.37
X109.22Y-41.91
X109.22Y-44.45
X109.22Y-46.99
X109.22Y-49.53
X109.22Y-52.07
X109.22Y-54.61
X109.22Y-57.15
X109.22Y-59.69
X109.22Y-62.23
X109.22Y-64.77
X109.22Y-69.85
X109.22Y-72.39
X109.22Y-74.93
X109.22Y-77.47
X109.22Y-80.01
X109.22Y-82.55
X109.22Y-85.09
X109.22Y-87.63
X109.22Y-90.17
X109.22Y-92.71
X109.22Y-95.25
X109.22Y-97.79
X109.22Y-100.33
X124.46Y-34.29
X124.46Y-36.83
X124.46Y-39.37
X124.46Y-41.91
X124.46Y-44.45
X124.46Y-46.99
X124.46Y-49.53
X124.46Y-52.07
X124.46Y-54.61
X124.46Y-57.15
X124.46Y-59.69
X124.46Y-62.23
X124.46Y-64.77
X124.46Y-69.85
X124.46Y-72.39
X124.46Y-74.93
X124.46Y-77.47
X124.46Y-80.01
X124.46Y-82.55
X124.46Y-85.09
X124.46Y-87.63
X124.46Y-90.17
X124.46Y-92.71
X124.46Y-95.25
X124.46Y-97.79
X124.46Y-100.33
X129.54Y-34.29
X129.54Y-36.83
X129.54Y-39.37
X129.54Y-41.91
X129.54Y-44.45
X129.54Y-46.99
X129.54Y-49.53
X129.54Y-52.07
X129.54Y-54.61
X129.54Y-57.15
X129.54Y-59.69
X129.54Y-62.23
X129.54Y-64.77
X129.54Y-69.85
X129.54Y-72.39
X129.54Y-74.93
X129.54Y-77.47
X129.54Y-80.01
X129.54Y-82.55
X129.54Y-85.09
X129.54Y-87.63
X129.54Y-90.17
X129.54Y-92.71
X129.54Y-95.25
X129.54Y-97.79
X129.54Y-100.33
X144.78Y-34.29
X144.78Y-36.83
X144.78Y-39.37
X144.78Y-41.91
X144.78Y-44.45
X144.78Y-46.99
X144.78Y-49.53
X144.78Y-52.07
X144.78Y-54.61
X144.78Y-57.15
X144.78Y-59.69
X144.78Y-62.23
X144.78Y-64.77
X144.78Y-69.85
X144.78Y-72.39
X144.78Y-74.93
X144.78Y-77.47
X144.78Y-80.01
X144.78Y-82.55
X144.78Y-85.09
X144.78Y-87.63
X144.78Y-90.17
X144.78Y-92.71
X144.78Y-95.25
X144.78Y-97.79
X144.78Y-100.33
X149.86Y-34.29
X149.86Y-36.83
X149.86Y-39.37
X149.86Y-41.91
X149.86Y-44.45
X149.86Y-46.99
X149.86Y-49.53
X149.86Y-52.07
X149.86Y-54.61
X149.86Y-57.15
X149.86Y-59.69
X149.86Y-62.23
X149.86Y-64.77
X149.86Y-69.85
X149.86Y-72.39
X149.86Y-74.93
X149.86Y-77.47
X149.86Y-80.01
X149.86Y-82.55
X149.86Y-85.09
X149.86Y-87.63
X149.86Y-90.17
X149.86Y-92.71
X149.86Y-95.25
X149.86Y-97.79
X149.86Y-100.33
X165.1Y-34.29
X165.1Y-36.83
X165.1Y-39.37
X165.1Y-41.91
X165.1Y-44.45
X165.1Y-46.99
X165.1Y-49.53
X165.1Y-52.07
X165.1Y-54.61
X165.1Y-57.15
X165.1Y-59.69
X165.1Y-62.23
X165.1Y-64.77
X165.1Y-69.85
X165.1Y-72.39
X165.1Y-74.93
X165.1Y-77.47
X165.1Y-80.01
X165.1Y-82.55
X165.1Y-85.09
X165.1Y-87.63
X165.1Y-90.17
X165.1Y-92.71
X165.1Y-95.25
X165.1Y-97.79
X165.1Y-100.33
T4
G00X70.614Y-34.03
M15
G01X70.614Y-35.23
M16
G05
G00X70.614Y-38.23
M15
G01X70.614Y-39.03
M16
G05
G00X70.636Y-96.389
M15
G01X70.636Y-95.59
M16
G05
G00X70.636Y-100.59
M15
G01X70.636Y-99.389
M16
G05
G00X81.764Y-34.03
M15
G01X81.764Y-35.23
M16
G05
G00X81.764Y-38.23
M15
G01X81.764Y-39.03
M16
G05
G00X81.786Y-96.389
M15
G01X81.786Y-95.59
M16
G05
G00X81.786Y-100.59
M15
G01X81.786Y-99.389
M16
G05
G00X90.934Y-34.03
M15
G01X90.934Y-35.23
M16
G05
G00X90.934Y-38.23
M15
G01X90.934Y-39.03
M16
G05
G00X90.956Y-96.389
M15
G01X90.956Y-95.59
M16
G05
G00X90.956Y-100.59
M15
G01X90.956Y-99.389
M16
G05
G00X102.084Y-34.03
M15
G01X102.084Y-35.23
M16
G05
G00X102.084Y-38.23
M15
G01X102.084Y-39.03
M16
G05
G00X102.106Y-96.389
M15
G01X102.106Y-95.59
M16
G05
G00X102.106Y-100.59
M15
G01X102.106Y-99.389
M16
G05
G00X111.254Y-34.03
M15
G01X111.254Y-35.23
M16
G05
G00X111.254Y-38.23
M15
G01X111.254Y-39.03
M16
G05
G00X111.276Y-96.389
M15
G01X111.276Y-95.59
M16
G05
G00X111.276Y-100.59
M15
G01X111.276Y-99.389
M16
G05
G00X122.404Y-34.03
M15
G01X122.404Y-35.23
M16
G05
G00X122.404Y-38.23
M15
G01X122.404Y-39.03
M16
G05
G00X122.426Y-96.389
M15
G01X122.426Y-95.59
M16
G05
G00X122.426Y-100.59
M15
G01X122.426Y-99.389
M16
G05
G00X131.574Y-34.03
M15
G01X131.574Y-35.23
M16
G05
G00X131.574Y-38.23
M15
G01X131.574Y-39.03
M16
G05
G00X131.596Y-96.389
M15
G01X131.596Y-95.59
M16
G05
G00X131.596Y-100.59
M15
G01X131.596Y-99.389
M16
G05
G00X142.724Y-34.03
M15
G01X142.724Y-35.23
M16
G05
G00X142.724Y-38.23
M15
G01X142.724Y-39.03
M16
G05
G00X142.746Y-96.389
M15
G01X142.746Y-95.59
M16
G05
G00X142.746Y-100.59
M15
G01X142.746Y-99.389
M16
G05
G00X151.894Y-34.03
M15
G01X151.894Y-35.23
M16
G05
G00X151.894Y-38.23
M15
G01X151.894Y-39.03
M16
G05
G00X151.916Y-96.389
M15
G01X151.916Y-95.59
M16
G05
G00X151.916Y-100.59
M15
G01X151.916Y-99.389
M16
G05
G00X163.044Y-34.03
M15
G01X163.044Y-35.23
M16
G05
G00X163.044Y-38.23
M15
G01X163.044Y-39.03
M16
G05
G00X163.066Y-96.389
M15
G01X163.066Y-95.59
M16
G05
G00X163.066Y-100.59
M15
G01X163.066Y-99.389
M16
G05
T0
M30
